<?xml version="1.0" standalone="no"?>
<!DOCTYPE svg PUBLIC "-//W3C//DTD SVG 1.1//EN" "http://www.w3.org/Graphics/SVG/1.1/DTD/svg11.dtd" >
<svg xmlns="http://www.w3.org/2000/svg">
<metadata>
Created by FontForge 20120731 at Tue Jun 28 11:01:22 2016
 By admin
</metadata>
<defs>
<font id="iconfont" horiz-adv-x="1024" >
  <font-face 
    font-family="iconfont"
    font-weight="500"
    font-stretch="normal"
    units-per-em="1024"
    panose-1="2 0 6 3 0 0 0 0 0 0"
    ascent="896"
    descent="-128"
    x-height="792"
    bbox="-0.703297 -128.9 1029 896.77"
    underline-thickness="50"
    underline-position="-100"
    unicode-range="U+0078-E694"
  />
<missing-glyph horiz-adv-x="374" 
d="M34 0v682h272v-682h-272zM68 34h204v614h-204v-614z" />
    <glyph glyph-name=".notdef" horiz-adv-x="374" 
d="M34 0v682h272v-682h-272zM68 34h204v614h-204v-614z" />
    <glyph glyph-name=".null" horiz-adv-x="0" 
 />
    <glyph glyph-name="nonmarkingreturn" horiz-adv-x="341" 
 />
    <glyph glyph-name="x" unicode="x" horiz-adv-x="1001" 
d="M281 543q-27 -1 -53 -1h-83q-18 0 -36.5 -6t-32.5 -18.5t-23 -32t-9 -45.5v-76h912v41q0 16 -0.5 30t-0.5 18q0 13 -5 29t-17 29.5t-31.5 22.5t-49.5 9h-133v-97h-438v97zM955 310v-52q0 -23 0.5 -52t0.5 -58t-10.5 -47.5t-26 -30t-33 -16t-31.5 -4.5q-14 -1 -29.5 -0.5
t-29.5 0.5h-32l-45 128h-439l-44 -128h-29h-34q-20 0 -45 1q-25 0 -41 9.5t-25.5 23t-13.5 29.5t-4 30v167h911zM163 247q-12 0 -21 -8.5t-9 -21.5t9 -21.5t21 -8.5q13 0 22 8.5t9 21.5t-9 21.5t-22 8.5zM316 123q-8 -26 -14 -48q-5 -19 -10.5 -37t-7.5 -25t-3 -15t1 -14.5
t9.5 -10.5t21.5 -4h37h67h81h80h64h36q23 0 34 12t2 38q-5 13 -9.5 30.5t-9.5 34.5q-5 19 -11 39h-368zM336 498v228q0 11 2.5 23t10 21.5t20.5 15.5t34 6h188q31 0 51.5 -14.5t20.5 -52.5v-227h-327z" />
    <glyph glyph-name="uniE600" unicode="&#xe600;" 
d="M930 117q-17 13 -38.5 10.5t-34.5 -19.5t-10 -38.5t20 -34.5l4 -3q-44 -21 -56 -15q-9 7 -9 47v429q0 80 -47 131t-121 51q-64 0 -112 -56q-47 54 -114 54q-75 0 -122 -72q-37 40 -82 49q-2 -1 -13 0.5t-26.5 -8t-19.5 -28.5q-3 -12 0 -23t9 -18.5t13 -13t11 -7.5l5 -3
l-1 1q4 -1 8.5 -3.5t14 -10.5t16.5 -19t12.5 -32t5.5 -47v-298q0 -22 15.5 -37t37 -15t36.5 15t15 37v298l-1 13q3 7 4 14q1 9 5 24t11 34.5t19.5 33t26.5 13.5q26 0 43.5 -27.5t17.5 -49.5v-353q0 -22 15 -37t36.5 -15t36.5 15t15 37v353v5q8 25 24.5 49.5t37.5 24.5
q31 0 48 -20.5t17 -58.5v-429q0 -99 58 -135q26 -16 59 -16q38 0 85 21v-4q-3 -21 10 -38t34 -20h7q19 0 34 13t17 32l17 128z" />
    <glyph glyph-name="uniE601" unicode="&#xe601;" 
d="M233 135q0 -24 16 -40t40 -16h59v-144q0 -25 18 -43t43 -18h3q25 0 43 18t18 43v144h84v-144q0 -25 17.5 -43t42.5 -18h3q25 0 43 18t18 43v144h60q23 0 39.5 16t16.5 40v418h-564v-418zM889 563h-2q-25 0 -43 -18t-18 -43v-265q0 -25 18 -43t43 -18h2q26 0 43.5 18
t17.5 43v265q0 25 -18 43t-43 18zM137 563h-2q-26 0 -43.5 -18t-17.5 -43v-265q0 -25 18 -43t43 -18h2q25 0 43 18t18 43v265q0 25 -18 43t-43 18zM646 676q-11 0 -19 8t-8 19t8 19t19 8t19 -8t8 -19t-8 -19t-19 -8zM383.5 676q-11.5 0 -19.5 8t-8 19t8 19t19.5 8t19.5 -8
t8 -19t-8 -19t-19.5 -8zM655 807l48 73q5 9 -3 14q-9 6 -14 -3l-50 -76q-57 24 -121 24t-122 -24l-49 76q-6 9 -14 3q-9 -5 -3 -14l47 -73q-65 -32 -104 -88.5t-39 -123.5v-17h567q1 12 1 17q0 67 -39 123.5t-105 88.5z" />
    <glyph glyph-name="uniE602" unicode="&#xe602;" 
d="M662 732.5q28 34.5 43 77.5t10 86q-38 -2 -80 -23.5t-70 -54.5q-27 -31 -43.5 -74t-10.5 -84q41 -3 82 17.5t69 55zM791 352q0 36 11.5 70t24 53.5t34 39.5t26 22.5t14.5 9.5q-21 31 -48.5 52.5t-55.5 31t-47 13.5t-36 4q-34 4 -74 -8t-73 -25.5t-48 -13.5
q-17 0 -74.5 23t-94.5 22q-65 -1 -121.5 -35.5t-89.5 -92.5q-33 -57 -40.5 -129t6 -141.5t39 -133t60.5 -112.5q20 -30 34.5 -48.5t36 -40t44 -32t46.5 -9.5q29 1 77.5 21.5t89.5 20.5q40 0 87.5 -20.5t81.5 -20.5q25 1 47 11t42.5 30.5t33.5 37.5t33 47q43 63 71 146
q-8 3 -17.5 8t-33 22.5t-40.5 39t-31.5 58t-14.5 79.5z" />
    <glyph glyph-name="uniE603" unicode="&#xe603;" 
d="M936 343l-149 -119l-149 119q-15 12 -34 12t-34 -12l-148 -119l-149 119q-15 12 -34 12t-34 -12l-183 -147q-17 -14 -19.5 -36t11.5 -40q16 -20 42 -20q20 0 35 12l148 119l149 -119q14 -12 33.5 -12t34.5 12l148 119l149 -119q15 -12 34 -12t34 12l183 147
q17 14 19.5 36t-11.5 40t-36.5 20t-39.5 -12zM56 413q20 0 35 12l148 119l149 -119q14 -12 33.5 -12t34.5 12l148 119l149 -119q15 -12 34 -12t34 12l183 147q17 14 19.5 36t-11.5 40t-36.5 20t-39.5 -12l-149 -119l-149 119q-15 12 -34 12t-34 -12l-148 -119l-149 119
q-15 12 -34 12t-34 -12l-183 -147q-17 -14 -19.5 -36t11.5 -40q16 -20 42 -20z" />
    <glyph glyph-name="uniE604" unicode="&#xe604;" 
d="M806 825q-20 0 -42 -4.5t-58.5 -25t-68 -54.5t-66 -100t-58.5 -154q-24 88 -58.5 154t-66.5 100t-68 54.5t-58 25t-42 4.5q-90 0 -154 -64t-64 -154q0 -26 18 -44.5t44 -18.5t44 18.5t18 44.5q0 38 27.5 65.5t66.5 27.5q15 0 33.5 -9.5t42 -35t44.5 -63.5t42 -102
t34 -145l35 -346q0 -1 1 -3v-2q1 -6 1 -7q1 -1 1 -3l1 -1q2 -5 3 -7q0 -1 1 -2l1 -1q3 -5 4 -7l4 -4l4 -4q1 -1 4.5 -3.5t5.5 -3.5q1 0 4.5 -2t5.5 -3q2 0 5 -1q4 -1 7 -1q1 -1 2 -1h1h6v0v0h6h1q1 0 1 1q4 0 8 1q3 1 4 1q3 1 6.5 3t4.5 2q2 1 5.5 3.5t4.5 3.5l4 4l4 4
q1 2 4 7l1 1q1 1 1 2q1 2 3 7l1 1q0 2 1 3q0 1 1 7q0 1 0.5 2.5t0.5 2.5l34 346q14 81 35 145t42 102t44.5 63.5t41.5 35t34 9.5q39 0 66 -27.5t27 -65.5q0 -26 18.5 -44.5t44 -18.5t44 18.5t18.5 44.5q0 90 -64 154t-154 64z" />
    <glyph glyph-name="uniE605" unicode="&#xe605;" 
d="M512 896q-42 0 -71.5 -29.5t-29.5 -72.5v-576l-156 156q-32 32 -75.5 33t-73 -28.5t-28 -73t33.5 -74.5l325 -326q31 -32 74.5 -33t73.5 28q2 3 3 3.5t2 2.5l2 1l321 321q32 32 33 75t-29 72.5t-73 28.5t-74 -32l-157 -156v578q0 43 -29.5 72.5t-71.5 29.5z" />
    <glyph glyph-name="uniE606" unicode="&#xe606;" 
d="M1023 384q0 42 -29.5 71.5t-71.5 29.5h-576l156 156q32 31 33 74.5t-28.5 73t-73 28t-74.5 -32.5l-325 -325q-32 -32 -33.5 -75t28.5 -73q2 -2 3 -2.5t2 -2.5l2 -2l321 -321q31 -31 74 -32t72.5 28.5t28.5 72.5t-32 75l-156 156h578q42 0 71.5 29.5t29.5 71.5z" />
    <glyph glyph-name="uniE607" unicode="&#xe607;" 
d="M1 384q0 -42 30 -71.5t72 -29.5h574l-155 -155q-32 -32 -33 -75.5t28.5 -73t72.5 -28t75 33.5l325 324q31 32 32.5 75t-28.5 73q-2 2 -3 2.5t-2 2.5l-1 2l-321 320q-31 31 -74 32t-72.5 -28.5t-28.5 -72.5t32 -74l156 -156h-577q-42 0 -72 -29.5t-30 -71.5z" />
    <glyph glyph-name="uniE608" unicode="&#xe608;" 
d="M512 -128q42 0 71.5 29.5t29.5 72.5v576l156 -156q32 -32 75.5 -33t73 28.5t28 73t-33.5 74.5l-325 326q-31 32 -74.5 33t-73.5 -28q-2 -3 -3 -3.5t-2 -2.5l-2 -1l-321 -321q-32 -32 -33 -75t29 -72.5t73 -28.5t74 32l157 156v-578q0 -43 29.5 -72.5t71.5 -29.5z" />
    <glyph glyph-name="uniE609" unicode="&#xe609;" 
d="M943 176q-27 23 -35 38l-1 1q-25 40 -38 183q-1 13 -2 22v1q-23 163 -101 269q-72 97 -177 124v5q0 32 -22.5 54.5t-54.5 22.5t-54.5 -22.5t-22.5 -54.5v-5q-105 -27 -177 -124q-78 -106 -101 -269v-1q0 -4 -1 -11.5t-1 -10.5q-13 -143 -38 -183l-1 -1q-8 -15 -35 -38
q-16 -15 -25 -25t-19.5 -29t-8 -42.5t17.5 -50.5q9 -17 28 -17h286q5 -59 49 -99.5t103 -40.5t102.5 40.5t49.5 99.5h286q19 0 28 17q15 27 17.5 50.5t-8 42.5t-19.5 29t-25 25zM512 -47q-26 0 -46 17t-24 42h140q-4 -25 -24 -42t-46 -17z" />
    <glyph glyph-name="uniE60A" unicode="&#xe60a;" 
d="M89 894h59v-1022h-59v1022zM871 894h-74v-402q0 -11 -9.5 -10.5t-19.5 9.5q-9 10 -103 99q-19 18 -38 0q-16 -16 -56 -53.5t-45 -42.5q-12 -12 -21.5 -12t-9.5 12v400h-270v-1022h646q26 0 44 18t18 44v898q0 26 -18 44t-44 18z" />
    <glyph glyph-name="uniE60B" unicode="&#xe60b;" 
d="M786 389h-548v270h548v-270zM700 116q-29 0 -49 20.5t-20 49t20 49t49 20.5t49 -20.5t20 -49t-20 -49t-49 -20.5zM324 116q-29 0 -49 20.5t-20 49t20 49t49 20.5t49 -20.5t20 -49t-20 -49t-49 -20.5zM388 810h248q11 0 19.5 -8.5t8.5 -20t-8.5 -19.5t-19.5 -8h-248
q-11 0 -19.5 8t-8.5 19.5t8.5 20t19.5 8.5zM871 853q-178 43 -359 43t-359 -43q-16 -4 -26 -16.5t-10 -29.5v-778q0 -17 10 -29.5t26 -16.5q20 -5 42 -9l-12 -41q-7 -23 7 -42t38 -19h7q15 0 28 9.5t17 24.5l16 54q101 -11 216 -11t216 11l16 -54q4 -15 17 -24.5t28 -9.5h7
q20 0 34 14t14 33q0 9 -3 16l-12 39q22 4 42 9q16 4 26 16.5t10 29.5v778q0 17 -10 29.5t-26 16.5z" />
    <glyph glyph-name="uniE60C" unicode="&#xe60c;" 
d="M233 362h132q12 0 12 10v110q0 11 -12 11h-132q-12 0 -12 -11v-110q0 -10 12 -10zM446 362h132q12 0 12 10v110q0 11 -12 11h-132q-12 0 -12 -11v-110q0 -10 12 -10zM659 362h132q12 0 12 10v110q0 11 -12 11h-132q-12 0 -12 -11v-110q0 -10 12 -10zM233 185h132
q12 0 12 10v110q0 11 -12 11h-132q-12 0 -12 -11v-110q0 -10 12 -10zM446 185h132q12 0 12 10v110q0 11 -12 11h-132q-12 0 -12 -11v-110q0 -10 12 -10zM659 185h132q12 0 12 10v110q0 11 -12 11h-132q-12 0 -12 -11v-110q0 -10 12 -10zM896 81h-768v514h768v-514zM947 785
h-83v48q0 26 -22.5 44.5t-53.5 18.5h-4q-31 0 -53.5 -18.5t-22.5 -44.5v-48h-392v48q0 26 -22.5 44.5t-53.5 18.5h-4q-31 0 -53.5 -18.5t-22.5 -44.5v-48h-83q-32 0 -54 -18.5t-22 -44.5v-677q0 -26 22 -44.5t54 -18.5h870q32 0 54 18.5t22 44.5v677q0 26 -22 44.5t-54 18.5
z" />
    <glyph glyph-name="uniE60D" unicode="&#xe60d;" 
d="M248 224q22 0 44 3q101 19 159.5 103t40.5 185q-18 98 -100 157q124 19 253 -4.5t230 -84.5q22 -12 46 -6t36.5 27t6.5 45t-27 37q-123 73 -279 100t-302 1q-51 -9 -92.5 -20.5t-91 -35t-83.5 -54t-59 -80t-29 -110.5v-7q-1 -27 4 -53q16 -88 84.5 -145.5t158.5 -57.5z
M353.5 397.5q-30.5 -43.5 -82.5 -52.5q-12 -2 -23 -2q-46 0 -81.5 30t-44.5 75q-9 52 21.5 96t82.5 53q11 2 22 2q47 0 82.5 -30t43.5 -75q10 -53 -20.5 -96.5zM1023 288q1 27 -4 53q-16 88 -84.5 145.5t-158.5 57.5q-22 0 -44 -3q-101 -18 -159.5 -102.5t-40.5 -185.5
q18 -98 100 -157q-124 -19 -253 4.5t-230 84.5q-22 13 -45.5 6.5t-36.5 -27.5t-7 -45t27 -37q92 -55 205.5 -84.5t229.5 -29.5q76 0 146 13q51 9 92.5 20.5t91 35t83.5 54t59 80t29 110.5v7zM670.5 370.5q30.5 43.5 82.5 52.5q12 2 23 2q46 0 82 -30t44 -75
q9 -53 -21.5 -96.5t-82.5 -52.5q-11 -2 -22 -2q-47 0 -82.5 30t-43.5 76q-10 52 20.5 95.5z" />
    <glyph glyph-name="uniE60E" unicode="&#xe60e;" 
d="M810 397q-99 0 -197 -61v328q0 29 -14 65.5t-40 71t-69.5 57.5t-93.5 23q-92 0 -159 -93q-36 38 -79.5 61.5t-82.5 30.5q-6 1 -12 1q-23 0 -40.5 -14.5t-21.5 -37.5q-5 -26 10 -47.5t41 -26.5q7 -1 17 -4t33.5 -16t41.5 -32t32.5 -54.5t14.5 -80.5v-384q0 -27 18.5 -45.5
t44.5 -18.5t44.5 18.5t18.5 45.5v384q0 46 -10 88q15 37 39 67.5t50 30.5q29 0 51.5 -20.5t31 -40.5t8.5 -29v-460q-10 -12 -20 -25q-28 -37 -45 -57t-44.5 -49.5t-51.5 -44t-45 -14.5q-9 0 -18 4q-11 4 -23 4q-19 0 -35.5 -11.5t-23.5 -29.5q-9 -24 1.5 -48t35.5 -34
q32 -12 65 -12q37 0 73.5 15t71 44.5t61.5 59.5t61 72q53 -52 125 -80t135 -28q89 0 151.5 62.5t62.5 151t-62.5 151t-151.5 62.5zM897 184q0 -36 -25.5 -61.5t-61.5 -25.5q-42 0 -96.5 22.5t-87.5 62.5q33 40 87 64.5t97 24.5q36 0 61.5 -25.5t25.5 -61.5z" />
    <glyph glyph-name="uniE60F" unicode="&#xe60f;" 
d="M896 272.5q0 26.5 -25 45t-61 18.5t-61.5 -18.5t-25.5 -45t25.5 -45.5t61.5 -19t61 19t25 45.5zM301 272.5q0 26.5 -25.5 45t-61.5 18.5t-61 -18.5t-25 -45t25 -45.5t61 -19t61.5 19t25.5 45.5zM150 483q0 -37 39 -63t95 -26h456q57 0 95.5 26t38.5 64q0 11 -1 18
q-5 21 -19 57t-26 61l-11 26q-8 20 -25 34.5t-29 14.5h-502q-12 0 -29 -14.5t-25 -34.5q-39 -90 -56 -144q-1 -4 -1 -19zM1023 462q0 -22 -13.5 -37.5t-32.5 -15.5h-12q10 -29 10 -59v-62q0 -102 -48 -139v-68q0 -26 -16 -44t-39 -18h-50q-22 0 -38 18t-16 44v51h-512v-51
q0 -26 -16 -44t-38 -18h-50q-23 0 -39 18t-16 44v68q-48 37 -48 139v62q0 30 10 59h-12q-19 0 -32.5 15.5t-13.5 37.5t13.5 37.5t32.5 15.5h46h4l60 151q14 35 44 59t60 24h502q30 0 60.5 -24t44.5 -59l59 -151h4h46q19 0 32.5 -15.5t13.5 -37.5zM177 483q0 11 7 22h656
q7 -11 7 -22q0 -25 -31.5 -43t-75.5 -18h-456q-43 0 -75 18t-32 43z" />
    <glyph glyph-name="uniE610" unicode="&#xe610;" 
d="M677 330h-323h-149v-458h86l39 284h364l27 -284h98v458h-142zM333 657h363l-2 -43h-358zM712 896l-2 -44h-397l-3 44h-57v-521h96l-10 128h353l-7 -128h86v521h-59z" />
    <glyph glyph-name="uniE611" unicode="&#xe611;" 
d="M787 477l-346 -332l-204 195q-19 18 -19.5 44.5t18 45.5t45 19.5t45.5 -17.5l115 -110l257 247q19 19 45.5 18t45 -20t18 -45.5t-19.5 -44.5zM512 896q-104 0 -199 -40.5t-163.5 -109t-109 -163.5t-40.5 -199t40.5 -199t109 -163.5t163.5 -109t199 -40.5t199 40.5
t163.5 109t109 163.5t40.5 199t-40.5 199t-109 163.5t-163.5 109t-199 40.5z" />
    <glyph glyph-name="uniE612" unicode="&#xe612;" 
d="M376 297l-203 202q-10 10 -24 10t-24 -10l-114 -114q-11 -10 -11 -24.5t11 -24.5l340 -340q10 -10 24.5 -10t24.5 10l613 613q11 10 11 24.5t-11 24.5l-114 114q-10 10 -24 10t-24 -10z" />
    <glyph glyph-name="uniE613" unicode="&#xe613;" 
d="M525 147l-525 407l52 67l472 -366l447 365l53 -66z" />
    <glyph glyph-name="uniE614" unicode="&#xe614;" 
d="M275 371l407 525l67 -52l-366 -472l365 -447l-66 -53z" />
    <glyph glyph-name="uniE615" unicode="&#xe615;" 
d="M749 397l-407 -525l-67 52l366 472l-365 447l66 53z" />
    <glyph glyph-name="uniE616" unicode="&#xe616;" 
d="M499 621l525 -407l-52 -67l-472 366l-447 -365l-53 66z" />
    <glyph glyph-name="uniE617" unicode="&#xe617;" 
d="M512 -43q-116 0 -214 57.5t-155.5 155.5t-57.5 214t57.5 214t155.5 155.5t214 57.5t214 -57.5t155.5 -155.5t57.5 -214t-57.5 -214t-155.5 -155.5t-214 -57.5zM512 895q-104 0 -198.5 -40.5t-163 -109t-109 -163t-40.5 -198.5t40.5 -198.5t109 -163t163 -109t198.5 -40.5
t198.5 40.5t163 109t109 163t40.5 198.5t-40.5 198.5t-109 163t-163 109t-198.5 40.5zM554 401v289q0 18 -12.5 30t-29.5 12t-29.5 -12t-12.5 -30v-306q0 -20 15 -32q1 -1 1 -2l158 -179q13 -14 32 -14q16 0 28 10q13 12 14 29t-10 31z" />
    <glyph glyph-name="uniE618" unicode="&#xe618;" horiz-adv-x="1025" 
d="M826 202q-49 -83 -132 -132t-182 -49t-182 49t-132 132t-49 182t49 182t132 132t182 49t182 -49t132 -132t49 -182t-49 -182zM955.5 641q-68.5 118 -186.5 186.5t-257 68.5t-257 -68.5t-186.5 -186.5t-68.5 -257t68.5 -257t186.5 -186.5t257 -68.5t257 68.5t186.5 186.5
t68.5 257t-68.5 257zM576 640h-43q-9 0 -15 -6t-6 -15v-235h-149q-10 0 -16 -6t-6 -15v-43q0 -9 6 -15t16 -6h213q9 0 15 6t6 15v299q0 9 -6 15t-15 6z" />
    <glyph glyph-name="uniE619" unicode="&#xe619;" 
d="M763 193q0 -34 -24 -60t-61.5 -40.5t-77.5 -21.5t-77 -7q-136 0 -226.5 92.5t-90.5 230.5q0 136 89.5 226.5t223.5 90.5q30 0 65.5 -5.5t76 -18.5t67.5 -40.5t27 -64.5v-73q0 -11 -11 -11h-77q-11 0 -11 11v47q0 28 -43 44.5t-90 16.5q-93 0 -151 -61t-58 -158
q0 -101 60.5 -166.5t153.5 -65.5q45 0 91 15.5t46 44.5v46q0 11 10 11h78q4 0 7 -3t3 -8v-72zM91 384q0 -116 56 -214t153.5 -155.5t211.5 -57.5t211.5 57.5t153.5 155.5t56 214t-56 214t-153.5 155.5t-211.5 57.5t-211.5 -57.5t-153.5 -155.5t-56 -214zM512 -128
q-103 0 -196.5 40.5t-161.5 109t-108 163.5t-40 199t40 199t108 163.5t161.5 109t196.5 40.5t196.5 -40.5t161.5 -109t108 -163.5t40 -199t-40 -199t-108 -163.5t-161.5 -109t-196.5 -40.5z" />
    <glyph glyph-name="uniE61A" unicode="&#xe61a;" 
d="M302 466h446q12 0 21 -8.5t9 -21t-9 -21.5t-21 -9h-446q-13 0 -21.5 9t-8.5 21.5t8.5 21t21.5 8.5zM748 243h-446q-13 0 -21.5 8.5t-8.5 21t8.5 21.5t21.5 9h446q12 0 21 -9t9 -21.5t-9 -21t-21 -8.5zM525 89h-223q-13 0 -21.5 8.5t-8.5 21t8.5 21.5t21.5 9h223
q12 0 21 -9t9 -21.5t-9 -21t-21 -8.5zM512 -128h342q26 0 45 18.5t19 45.5v896q0 27 -19 45.5t-45 18.5h-456v-21q1 -3 1 -7v-175q0 -37 -26.5 -63t-63.5 -26h-175h-5h-23v-668q0 -27 19 -45.5t45 -18.5h342zM134 640h175q22 0 37.5 15.5t15.5 37.5v175q0 12 -8 19.5
t-19 7.5t-19 -8l-201 -201q-13 -13 -6 -29.5t25 -16.5z" />
    <glyph glyph-name="uniE61B" unicode="&#xe61b;" 
d="M736 288h-288q-13 0 -22.5 -9.5t-9.5 -23t9.5 -22.5t22.5 -9h288q13 0 22.5 9t9.5 22.5t-9.5 23t-22.5 9.5zM736 447h-288q-13 0 -22.5 -9t-9.5 -22.5t9.5 -23t22.5 -9.5h288q13 0 22.5 9.5t9.5 23t-9.5 22.5t-22.5 9zM800 640q-24 0 -44 33.5t-20 61.5v96l160 -191h-96z
M896 128q0 -25 -19.5 -44.5t-44.5 -19.5h-480q-25 0 -44.5 19.5t-19.5 44.5v640q0 25 19.5 44.5t44.5 19.5h320v-129q0 -50 38.5 -88.5t89.5 -38.5h96v-448zM672 -64h-480q-25 0 -44.5 19.5t-19.5 44.5v640q0 25 18 44t43 19l35 1v-576q0 -50 39 -89t89 -39h384
q0 -25 -19.5 -44.5t-44.5 -19.5zM736 896h-384q-50 0 -89 -39t-39 -89l-37 -1q-50 0 -86.5 -38.5t-36.5 -88.5v-640q0 -50 39 -89t89 -39h480q50 0 89 39t39 89h32q50 0 89 39t39 89v511z" />
    <glyph glyph-name="uniE61C" unicode="&#xe61c;" 
d="M106.5 277q44.5 0 75.5 31.5t31 75.5t-31 75.5t-75.5 31.5t-75.5 -31.5t-31 -75.5t31 -75.5t75.5 -31.5zM512 277q44 0 75.5 31.5t31.5 75.5t-31.5 75.5t-75.5 31.5t-75.5 -31.5t-31.5 -75.5t31.5 -75.5t75.5 -31.5zM917 277q44 0 75.5 31.5t31.5 75.5t-31.5 75.5
t-75.5 31.5t-75 -31.5t-31 -75.5t31 -75.5t75 -31.5z" />
    <glyph glyph-name="uniE61D" unicode="&#xe61d;" horiz-adv-x="1025" 
d="M512 532q-29 0 -49.5 21t-20.5 50t20.5 49.5t49.5 20.5t49.5 -20.5t20.5 -49.5t-20.5 -50t-49.5 -21zM582 165q0 -29 -20.5 -49.5t-49.5 -20.5t-49.5 20.5t-20.5 49.5v243q0 30 20.5 50.5t49.5 20.5t49.5 -20.5t20.5 -50.5v-243zM512 896q-139 0 -257 -68.5
t-186.5 -186.5t-68.5 -257t68.5 -257t186.5 -186.5t257 -68.5t257 68.5t186.5 186.5t68.5 257t-68.5 257t-186.5 186.5t-257 68.5z" />
    <glyph glyph-name="uniE61E" unicode="&#xe61e;" 
d="M579 279q0 -28 -19.5 -47.5t-47.5 -19.5t-47.5 19.5t-19.5 47.5v232q0 28 19.5 48t47.5 20t47.5 -20t19.5 -48v-232zM512 27q-28 0 -47.5 19.5t-19.5 47.5t19.5 47.5t47.5 19.5t47.5 -19.5t19.5 -47.5t-19.5 -47.5t-47.5 -19.5zM1014 -5l-466 814q-2 2 -4.5 6t-10.5 11.5
t-16.5 10t-20 -4t-21.5 -23.5l-466 -814q-1 -3 -3 -7t-4.5 -15t-0.5 -19.5t13 -15.5t32 -7h931q36 0 45 22q6 16 -8 42z" />
    <glyph glyph-name="uniE61F" unicode="&#xe61f;" 
d="M512 483.5q0 -38.5 -28 -66t-68 -27.5t-68 27.5t-28 66t28 66t68 27.5t68 -27.5t28 -66zM764 531q91 -57 150 -147q-59 -90 -150 -147q-115 -72 -252 -72t-252 72q-91 57 -150 147q59 90 150 147q3 2 11 7q-15 -41 -15 -86q0 -103 75 -176.5t181 -73.5t181 73.5t75 176.5
q0 45 -15 86q6 -4 11 -7zM512 696q-165 0 -302 -85.5t-210 -226.5q73 -141 210 -226.5t302 -85.5t302 85.5t210 226.5q-73 141 -210 226.5t-302 85.5z" />
    <glyph glyph-name="uniE620" unicode="&#xe620;" 
d="M971 -41h-918q-24 0 -38.5 16t-14.5 37v744q0 24 16 38.5t37 14.5h918q24 0 38.5 -16t14.5 -37v-744q0 -24 -16 -38.5t-37 -14.5zM78 37h868v694h-868v-694zM332 482q-13 0 -23 10l-84 84q-9 10 -9 23.5t9.5 23t22.5 9.5t23 -10l84 -84q9 -10 9 -23.5t-9.5 -23
t-22.5 -9.5zM248 482q-13 0 -22.5 9.5t-9.5 23t9 23.5l84 84q10 10 23 10t22.5 -9.5t9.5 -23t-9 -23.5l-84 -84q-10 -10 -23 -10zM776 482q-13 0 -23 10l-84 84q-9 10 -9 23.5t9.5 23t22.5 9.5t23 -10l84 -84q9 -10 9 -23.5t-9.5 -23t-22.5 -9.5zM692 482q-13 0 -22.5 9.5
t-9.5 23t9 23.5l84 84q10 10 23 10t22.5 -9.5t9.5 -23t-9 -23.5l-84 -84q-10 -10 -23 -10zM797 163h-570q-13 0 -22.5 9.5t-9.5 23t9.5 23t22.5 9.5h570q13 0 22.5 -9.5t9.5 -23t-9.5 -23t-22.5 -9.5zM556 163v-61q0 -2 0.5 -5t4 -10.5t9.5 -13t19.5 -10.5t31.5 -5h69
q3 0 7.5 0.5t15.5 2.5t19.5 6.5t15.5 13.5t7 21v61h-199z" />
    <glyph glyph-name="uniE621" unicode="&#xe621;" 
d="M822 40l-55 92l-56 -92h-57h-40h-50l-15 47h-98l-14 -47h-89l106 287h95l91 -248l71 111l-88 137h96l49 -88l49 88h95l-88 -139l96 -148h-98zM348 157h-109v-117h-87v287h215v-61h-128v-51h109v-58zM939 400h-854q-35 0 -60 -25.5t-25 -61.5v-239q0 -36 25 -61.5
t60 -25.5h854q35 0 60 25.5t25 61.5v239q0 36 -25 61.5t-60 25.5zM500 253l-30 -104h61zM767 632h-508v44h508v-44zM767 531h-508v44h508v-44zM757 781h-497q-35 0 -59.5 -25.5t-24.5 -61.5v-255h666v255q0 36 -25 61.5t-60 25.5z" />
    <glyph glyph-name="uniE622" unicode="&#xe622;" 
d="M350 -127q8 -4 14.5 2.5t1.5 13.5q-81 116 -16 251q90 187 145 284q3 -13 10 -34.5t34.5 -78t63.5 -101.5q40 -51 62 -103t21 -110t-33 -106q-5 -7 1 -13.5t14 -2.5q174 83 187 276q7 89 -31 201q-44 126 -110 179q-6 5 -13 2t-6 -11q6 -90 -23 -110q-21 -15 -40 23
q-2 4 -3 8q-17 42 -17 128q0 154 -93 267q-27 33 -59 56q-6 4 -12.5 0.5t-6.5 -10.5q3 -32 -1 -70.5t-17.5 -100t-52.5 -137.5t-99 -152q-44 -57 -68.5 -114.5t-30.5 -99.5t-1.5 -82.5t11.5 -61.5t16 -38q53 -106 152 -155z" />
    <glyph glyph-name="uniE623" unicode="&#xe623;" 
d="M130.5 810q-22.5 22 -53.5 22t-53.5 -22t-22.5 -53q0 -42 38 -64v-738q0 -8 6 -13.5t13 -5.5h38q8 0 13.5 5.5t5.5 13.5v738q38 22 38 64q0 31 -22.5 53zM1011 746q-11 11 -26 11q-8 0 -33 -12q-25 -13 -52 -28q-27 -14 -65 -27q-37 -12 -69 -12q-30 0 -52 11
q-75 34 -129 51q-55 17 -119 17q-109 0 -248 -70q-35 -17 -47 -25q-18 -13 -18 -32v-433q0 -15 11 -26t27 -11q9 0 19 5q161 85 274 85q43 0 84 -12.5t68.5 -28t64.5 -27.5q37 -13 73 -13q91 0 218 67q16 9 23 16.5t7 22.5v445q0 15 -11 26z" />
    <glyph glyph-name="uniE624" unicode="&#xe624;" 
d="M313 572q0 83 58.5 142t140.5 59t140.5 -59t58.5 -142t-58.5 -142t-140.5 -59t-140.5 59t-58.5 142zM833 572q0 88 -43 162.5t-117 118t-161 43.5t-161 -43.5t-117 -118t-43 -162.5q0 -117 74 -207t186 -111v-85h-97q-26 0 -43.5 -18t-17.5 -43.5t17.5 -43.5t43.5 -18h97
v-113q0 -25 18 -43t43 -18t43 18t18 43v113h97q26 0 43.5 18t17.5 43.5t-17.5 43.5t-43.5 18h-97v85q112 21 186 111t74 207z" />
    <glyph glyph-name="uniE625" unicode="&#xe625;" 
d="M399 870l-26 -63q-1 -3 -3.5 -7t-12.5 -15t-23.5 -19t-39 -15t-56.5 -7h-202v-38q0 -2 0.5 -4.5t4 -9.5t10.5 -12t22 -9t36 -4h207l-38 -95q-1 -3 -3 -7.5t-10.5 -15.5t-19 -20t-28.5 -16t-38 -7h-179v-39q0 -2 0.5 -4.5t4.5 -9.5t11 -12t22 -9.5t35 -4.5h147l-47 -117
q-1 -2 -2 -6t-3 -16.5t-1.5 -23.5t6 -24.5t16.5 -23t32.5 -16.5t51.5 -7h345l-43 -108q-2 -4 -6 -11.5t-19 -26t-34.5 -33t-54.5 -26t-76 -11.5h-296v-39q0 -5 4 -11.5t40.5 -17.5t101.5 -11h699v79h-112q-2 0 -4 1l-8 2q-6 1 -9 4.5t-5.5 9.5t2.5 16l53 131q1 3 3 7.5
t4.5 18.5t2.5 26t-5 27.5t-15.5 26t-31.5 18t-51 7.5h-339l31 78q1 3 4 8t16 18.5t31 24t51.5 18.5t74.5 8h397v40q0 4 -4 10.5t-40.5 17.5t-101.5 11h-366l31 80q2 4 5 9.5t16 19t31 24t51.5 19.5t74.5 9h267v39q0 4 -4 10.5t-40.5 17t-101.5 10.5h-236l25 63q1 3 2 7
t1.5 15t-3 19t-16 15t-32.5 7h-184z" />
    <glyph glyph-name="uniE626" unicode="&#xe626;" horiz-adv-x="1026" 
d="M448 373q-5 5 -11 5t-11 -5l-158 -158l-69 69q-9 9 -21 9t-21 -9t-9 -22v-213q0 -13 9 -22t21 -9h213q13 0 22 9t9 21.5t-9 21.5l-69 69l158 158q5 5 5 11t-5 11zM870 741q-9 9 -22 9h-213q-12 0 -21 -9t-9 -21.5t9 -21.5l68 -69l-158 -158q-5 -5 -5 -11t5 -11l54 -54
q5 -5 11.5 -5t10.5 5l158 158l69 -69q9 -9 21.5 -9t21.5 9.5t9 21.5v213q0 13 -9 22zM879 822q44 0 61 -29q11 -21 12 -44v-731q0 -44 -30 -60q-20 -12 -44 -12h-731q-44 0 -60 29q-11 21 -12 44v731q0 44 30 60q20 12 43 12h731zM879 896h-732q-3 0 -8 -0.5t-20 -3
t-29 -7.5t-31 -16t-29 -26t-20.5 -39t-8.5 -54v-732q0 -3 0.5 -8t3.5 -20.5t8 -29t16 -30.5t25.5 -29t39 -20.5t53.5 -8.5h732q3 0 8.5 0.5t20.5 3t29 7.5t30.5 16t29 26t20.5 39t8 54v732v8q0 5 -3 20.5t-8 29t-16 30.5t-26 29t-39 20.5t-54 8.5z" />
    <glyph glyph-name="uniE627" unicode="&#xe627;" 
d="M512.5 212q-70.5 0 -120.5 50t-50 121t50 121t120.5 50t121 -50t50.5 -121t-50.5 -121t-121 -50zM1021 441q-1 10 -11.5 17.5t-21.5 7.5q-35 0 -64 19t-42 51q-14 33 -6 68t34 59q9 7 10 18.5t-6 19.5q-36 46 -82 82q-8 7 -19.5 6.5t-18.5 -9.5q-23 -25 -59.5 -33.5
t-68.5 5.5q-33 13 -52 44t-17 67q0 11 -7 19.5t-18 10.5q-58 6 -116 0q-11 -1 -18 -9.5t-7 -19.5q1 -36 -18 -66t-52 -44q-31 -12 -67.5 -4t-59.5 33q-7 8 -18.5 9t-19.5 -6q-47 -36 -83 -81q-7 -9 -6.5 -20.5t9.5 -18.5q27 -24 34.5 -59.5t-6.5 -68.5q-13 -32 -43 -50.5
t-68 -18.5q-12 0 -20 -7t-10 -18q-6 -58 0 -117q1 -10 11.5 -17.5t22.5 -7.5q33 1 62.5 -18.5t43 -52t5.5 -67.5t-34 -59q-9 -7 -10 -18.5t6 -19.5q36 -46 81 -82q9 -7 20.5 -6.5t18.5 9.5q23 25 59.5 33.5t68.5 -4.5q33 -14 52 -45t17 -67q0 -11 7 -19.5t18 -10.5
q30 -3 59 -3q28 0 57 3q11 1 18 9.5t7 19.5q-1 36 18 66t52 44q32 12 68 4t59 -33q7 -8 18.5 -9t19.5 6q46 36 83 81q7 9 6.5 20.5t-9.5 18.5q-27 25 -34.5 60t6.5 68q13 31 41.5 50.5t62.5 19.5l7 -1q11 -1 19.5 6.5t10.5 18.5q6 58 0 117z" />
    <glyph glyph-name="uniE628" unicode="&#xe628;" 
d="M753 139v490q123 24 196.5 73.5t73.5 122.5q0 29 -21 50t-50 21q-28 0 -48.5 -19t-22.5 -47q-11 -15 -52.5 -32.5t-127.5 -33.5t-189.5 -16t-189.5 16t-127.5 33.5t-52.5 32.5q-2 28 -22.5 47t-48.5 19q-29 0 -50 -21t-21 -50q0 -73 73.5 -122.5t196.5 -73.5v-490
q-123 -24 -196.5 -73.5t-73.5 -122.5q0 -29 21 -50t50 -21q28 0 48.5 19t22.5 47q11 15 52.5 32.5t127.5 33.5t189.5 16t189.5 -16t127.5 -33.5t52.5 -32.5q2 -28 22.5 -47t48.5 -19q29 0 50 21t21 50q0 73 -73.5 122.5t-196.5 73.5zM412 158v452q49 -4 99 -4t100 4v-452
q-50 4 -100 4t-99 -4z" />
    <glyph glyph-name="uniE629" unicode="&#xe629;" 
d="M455 327h-333q-20 0 -34 -14t-14 -34v-359q0 -20 14 -34t34 -14h338q5 0 8 3t3 6l1 3v427q-1 16 -17 16zM902 327h-332q-9 0 -13.5 -5t-4.5 -10v-6v-422q0 -2 0.5 -3.5t3.5 -5t8 -3.5h338q20 0 34 14t14 34v359q0 20 -14 34t-34 14zM472 610q0 17 -17 17h-387
q-20 0 -34 -14.5t-14 -33.5v-150q0 -20 14 -34t34 -14h389q6 0 10 3.5t4 6.5l1 3v216zM956 627h-389q-6 0 -10 -3.5t-4 -7.5l-1 -4v-218q0 -2 0.5 -4t5 -5.5t12.5 -3.5h386q20 0 34 14t14 34v150q0 19 -14 33.5t-34 14.5zM251 819q-17 0 -24.5 -6t-10.5 -23q-4 -18 2 -27
q10 -13 46 -20q19 -4 45 -4q49 0 90 12q6 1 2 3q-24 20 -58.5 38t-64.5 24q-15 3 -27 3zM309 662q-33 0 -60 5q-66 13 -94 52q-25 35 -15 86q9 44 37.5 67.5t73.5 23.5q20 0 42 -4q60 -12 129 -58q82 -55 73 -98q-8 -41 -78 -60q-50 -14 -108 -14zM625 755q-5 -3 0 -4
q41 -12 92 -12q25 0 44 4q36 7 46 20q6 9 2 27q-3 17 -10.5 23t-24.5 6q-12 0 -27 -3q-30 -6 -64 -24t-58 -37zM717 662q-59 0 -109 14q-70 19 -78 60q-9 43 73 98q69 46 129 58q22 4 42 4q45 0 73.5 -23.5t37.5 -67.5q10 -51 -15 -86q-28 -39 -94 -52q-26 -5 -59 -5z" />
    <glyph glyph-name="uniE62A" unicode="&#xe62a;" 
d="M928 697q0 22 -17 38t-41.5 16t-41.5 -16t-17 -38l-31 -178q0 -8 -6 -13t-14 -5t-13.5 5t-5.5 13v286q0 23 -17 39t-41.5 16t-41.5 -16t-17 -39v-250q0 -7 -5.5 -12.5t-13.5 -5.5t-14 5.5t-6 12.5v287v0q0 22 -17 38t-41 16t-41 -16t-17 -38v-30v-257q0 -7 -6 -12.5
t-14 -5.5t-13.5 5.5t-5.5 12.5l-32 214v0q0 23 -17 38.5t-41 15.5t-41 -15.5t-17 -38.5v-9l31 -357l-96 71q-25 19 -55.5 17.5t-50.5 -22.5q-18 -21 -14 -49.5t28 -47.5q115 -118 169 -195q44 -62 109 -96v-130q0 -33 25 -56t60 -23h216q35 0 59.5 23t24.5 56v135
q34 22 57.5 52t33.5 61t14 53t4 42l31 396v7z" />
    <glyph glyph-name="uniE62B" unicode="&#xe62b;" horiz-adv-x="1025" 
d="M1024 88q3 -25 -15 -44l-144 -143q-10 -11 -25.5 -18.5t-31.5 -9.5q-1 0 -6 -0.5t-14 -0.5q-21 0 -67 7t-113 35q-66 27 -151 83q-85 55 -180 152q-76 75 -126 143t-80 126q-31 58 -46 105q-15 48 -20.5 82t-4.5 53q1 21 1 22q2 15 10 31t18 26l145 144q15 15 34 15
q15 0 25.5 -8t18.5 -20l116 -220q10 -18 5.5 -38.5t-18.5 -34.5l-53 -53q-2 -2 -4 -7t-2 -8q5 -23 20 -52q13 -27 40 -64t77 -86q49 -50 87 -78q38 -27 63.5 -40t38.5 -16l14 -3q2 0 7 1.5t7 4.5l62 62q19 18 45 18q19 0 30 -7h1l209 -123q23 -14 27 -36z" />
    <glyph glyph-name="uniE62C" unicode="&#xe62c;" 
d="M683 64q0 -9 -6 -15t-16 -6h-298q-10 0 -16 6t-6 15v107q0 9 6 15t16 6h64v213h-64q-10 0 -16 6t-6 16v106q0 10 6 16t16 6h213q9 0 15 -6t6 -16v-341h64q10 0 16 -6t6 -15v-107zM427 768q0 9 6 15t15 6h128q9 0 15 -6t6 -15v-107q0 -9 -6 -15t-15 -6h-128q-9 0 -15 6
t-6 15v107zM955 641q-68 118 -186 186.5t-257 68.5t-257 -68.5t-186.5 -186.5t-68.5 -257t68.5 -257t186.5 -186.5t257 -68.5t257 68.5t186.5 186.5t68.5 257t-69 257z" />
    <glyph glyph-name="uniE62D" unicode="&#xe62d;" horiz-adv-x="1026" 
d="M692 672q-3 4 -8 5l-196 62q-22 7 -43.5 7t-36.5 -4t-29 -11.5t-21 -13t-13 -10.5q-13 -13 -17 -24l-88 -206q-7 -18 5 -42q18 -36 56 -45q42 -10 77 25q8 8 13 17l29 55q8 14 20 25q25 25 42 9l88 -87q68 -69 127 -128l59 -58q6 -6 5 -16.5t-9 -18t-18 -8.5t-16 5
l-65 65q-6 6 -14.5 6t-15 -6.5t-6.5 -15t6 -15.5l65 -64q6 -6 5 -16t-9 -18t-18 -9t-16 5l-64 65q-7 6 -15.5 6t-15 -6t-6.5 -15t7 -15l64 -65q6 -6 5 -16t-8.5 -17.5t-17.5 -9t-16 4.5l-65 65q-6 6 -15 6t-15 -6t-6 -15t6 -15l64 -65q7 -6 5.5 -16t-9 -17.5t-17.5 -8.5
t-16 5l-79 78q9 13 6.5 29.5t-14.5 28.5q-14 14 -33 15.5t-31 -11.5q12 13 11 31.5t-15 32.5t-33 15t-31 -11q12 12 11 31t-15 33t-32.5 15t-31.5 -11q12 12 11 31t-15 33q-13 13 -30.5 14.5t-29.5 -8.5l-128 128q-6 6 -15 6t-15 -6t-6 -15t6 -15l127 -127l-37 -38
q-13 -13 -12 -31.5t15 -32.5t33 -15t31 11q-12 -12 -11 -31t15 -33t33 -15t31 11q-12 -12 -11 -31t15 -33t32.5 -15t31.5 12q-13 -13 -11.5 -31.5t15.5 -32.5t32.5 -15.5t31.5 11.5l40 40l78 -79q18 -18 45.5 -17t48.5 21q19 20 21 47q27 1 46.5 20.5t21.5 47.5
q26 1 46 20.5t22 46.5q27 2 46 22q20 20 21.5 47.5t-17.5 46.5l-33 33l135 135q6 6 6 15t-6 15zM922.5 537q-14.5 0 -24.5 10t-10 24.5t10 24.5t24.5 10t25 -10t10.5 -24.5t-10.5 -24.5t-25 -10zM1013 624l-172 173q-13 12 -30.5 12t-30.5 -12l-60 -61q-12 -12 -12 -29.5
t12 -30.5l173 -172q12 -13 29.5 -13t30.5 13l60 60q13 12 13 30t-13 30z" />
    <glyph glyph-name="uniE62E" unicode="&#xe62e;" 
d="M220 438l68 -46v386q0 20 15 35t36 15h346q21 0 36 -15t15 -35v-386l68 46l93 63l30 20l-123 75v182q0 49 -35 83.5t-84 34.5h-346q-49 0 -84 -34.5t-35 -83.5v-182l-123 -75l30 -20zM512 580q-7 24 -28 39.5t-48 15.5q-33 0 -56 -23t-23 -56q0 -38 22.5 -76t51 -62
t52 -39t29.5 -15t29.5 15t52.5 39t51 61.5t22 76.5q0 33 -23 56t-56 23q-27 0 -48 -15.5t-28 -39.5zM512 158l-423 286v-513q0 -24 17.5 -41.5t41.5 -17.5h728q24 0 41.5 17.5t17.5 41.5v513z" />
    <glyph glyph-name="uniE62F" unicode="&#xe62f;" horiz-adv-x="1025" 
d="M940 690q-86 85 -206 85q-68 0 -127 -29l-95 -46l-94 46q-59 29 -127 29q-121 0 -206 -85q-84 -84 -85 -203.5t83 -205.5q3 -4 7 -6l335 -297q37 -33 87 -33t88 33l335 297q4 3 7 6q83 86 82.5 205.5t-84.5 203.5z" />
    <glyph glyph-name="uniE630" unicode="&#xe630;" 
d="M1013 424l-480 417q-9 8 -21 8t-21 -8l-171 -148v60q0 27 -19 45.5t-45.5 18.5t-45 -18.5t-18.5 -45.5v-171l-181 -158q-10 -8 -11 -21.5t8 -23.5q8 -10 21.5 -11t23.5 8l459 399l459 -399q9 -8 21 -8q14 0 24 11q9 10 8 23t-11 22zM552 610q-17 15 -40 15t-40 -15
l-320 -263q-24 -19 -24 -49v-315q0 -27 18.5 -45.5t45.5 -18.5h192v321h256v-321h192q26 0 45 18.5t19 45.5v315q0 30 -24 49z" />
    <glyph glyph-name="uniE631" unicode="&#xe631;" horiz-adv-x="1025" 
d="M513 896q-104 0 -199 -41t-164 -109.5t-109.5 -164t-40.5 -200.5q0 -103 40.5 -197t109.5 -162.5t164 -109t199.5 -40.5t199 40t162.5 108t108.5 162.5t40.5 199t-41.5 200t-111 164t-163.5 109.5t-195 41zM513 -58q-89 0 -171 35t-141.5 94t-95 140t-35.5 170
q0 90 35.5 172.5t95 142.5t141.5 95.5t171 35.5t170.5 -35.5t141 -95.5t94.5 -142.5t35 -172.5q0 -88 -35 -169.5t-94.5 -140.5t-141 -94t-170.5 -35zM882 314q0 66 -67 103l-28 16q-30 16 -30 41q0 15 11 24.5t29 9.5t44 -11q25 -13 35 21q4 15 -0.5 23t-17.5 15
q-26 12 -59 12q-47 0 -78.5 -28.5t-31.5 -74.5q0 -36 16.5 -59.5t49.5 -42.5l30 -16q29 -17 29 -44q0 -17 -13.5 -26t-32.5 -9q-23 0 -51 12q-25 12 -36 -23q-4 -15 1 -23.5t19 -14.5q29 -14 67 -14q48 0 81 30t33 79zM658 326v213q0 13 -10.5 20t-24.5 7t-24 -7t-10 -20
v-204q0 -67 -46 -67q-48 0 -48 67v204q0 12 -11 19.5t-24 7.5q-16 0 -26 -7t-10 -20v-211q0 -123 119 -123q53 0 84 31t31 90zM390 311q0 39 -20 60t-42 25v1q56 28 56 80q0 42 -30 64.5t-71 22.5h-96q-13 0 -20.5 -8.5t-7.5 -20.5v-299q0 -13 10.5 -20t23.5 -7h91
q45 0 75.5 25.5t30.5 76.5zM312 461q0 -23 -16.5 -34t-40.5 -11h-27v90h27q57 0 57 -45zM323 319q0 -51 -61 -51h-30v99h30q24 0 42.5 -11t18.5 -37z" />
    <glyph glyph-name="uniE632" unicode="&#xe632;" horiz-adv-x="1027" 
d="M956 381q0 90 -35 172.5t-94 143t-141 96t-171 35.5t-171 -35.5t-141.5 -95.5t-95 -142.5t-35.5 -173.5q0 -89 35.5 -171t95 -141t141.5 -94t171 -35t171 35.5t141 95t94 141t35 169.5zM1026 381.5q0 -104.5 -40 -199t-108.5 -162.5t-163 -108t-199 -40t-199.5 40.5
t-164 108.5t-109.5 162.5t-40.5 197.5q0 105 40.5 200.5t109.5 164t164 109.5t199 41q101 0 195 -41t163.5 -109.5t111 -164t41.5 -200zM769 155v447q0 22 -13.5 37t-42.5 15q-23 0 -35.5 -9.5t-23.5 -32.5l-139 -288h-1l-139 288q-12 23 -24.5 32.5t-34.5 9.5
q-30 0 -43.5 -15t-13.5 -37v-447q0 -18 12.5 -28.5t30.5 -10.5q16 0 29.5 11t13.5 28v333h1l127 -259q14 -28 41 -28t41 28l127 259h1v-333q0 -17 13.5 -28t30.5 -11q18 0 30 10.5t12 28.5z" />
    <glyph glyph-name="uniE633" unicode="&#xe633;" 
d="M954 382q0 89 -35 171.5t-94.5 142.5t-141 95.5t-170.5 35.5t-171 -35.5t-141.5 -95t-95 -142t-35.5 -172.5t35.5 -171t95 -140t141.5 -93.5t171 -34.5t170.5 35t141 93.5t94.5 140t35 170.5zM1024 381.5q0 -104.5 -40.5 -198.5t-108.5 -162t-162.5 -108.5t-199 -40.5
t-199.5 40.5t-163.5 109t-109.5 162.5t-41 198t41 199.5t109.5 164.5t163.5 109.5t199 40.5q101 0 195 -41t163.5 -109.5t111 -164t41.5 -200zM811 456q0 25 -17 37.5t-43 12.5h-25v-104h21q24 0 44 12.5t20 41.5zM883 464q0 -68 -62 -99l55 -115q8 -16 -6.5 -29.5
t-31.5 -13.5t-24 15l-58 129h-30v-117q0 -12 -9.5 -19.5t-24.5 -7.5q-14 0 -24.5 7.5t-10.5 19.5v301q0 12 8 21t20 9h96q42 0 72 -26.5t30 -74.5zM312 456q0 25 -17 37.5t-43 12.5h-24v-104h20q24 0 44 12.5t20 41.5zM384 464q0 -68 -61 -99l55 -115q8 -16 -6.5 -29.5
t-32 -13.5t-24.5 15l-58 129h-29v-117q0 -12 -10 -19.5t-25 -7.5q-13 0 -23.5 7.5t-10.5 19.5v301q0 12 7.5 21t20.5 9h96q41 0 71 -26.5t30 -74.5zM620 241q0 12 -8 22t-21 10h-97v88h81q12 0 20 9t8 20q0 13 -7.5 21.5t-20.5 8.5h-81v81h90q12 0 20 10t8 22t-8 22t-20 10
h-131q-13 0 -20.5 -9t-7.5 -21v-299q0 -13 10.5 -20t24.5 -7h131q13 0 21 10t8 22z" />
    <glyph glyph-name="uniE634" unicode="&#xe634;" horiz-adv-x="1025" 
d="M513 -128q-104 0 -199 40.5t-164 108.5t-109.5 162.5t-40.5 197.5q0 105 40.5 200.5t109.5 164.5t164 109.5t199 40.5q101 0 195 -41t163.5 -109.5t111 -164.5t41.5 -200t-40.5 -198.5t-108.5 -162.5t-163 -108t-199 -40zM513 827q-89 0 -171 -35.5t-141.5 -95.5
t-94.5 -142.5t-35 -172.5q0 -89 35 -170t94.5 -140t141.5 -93.5t171 -34.5t170.5 34.5t140.5 93.5t94.5 140t35.5 170t-35.5 171.5t-94.5 142.5t-140.5 96t-170.5 36zM699 538h-139v-406q0 -21 -13 -33.5t-35 -12.5t-36.5 12.5t-14.5 33.5v406h-139q-21 0 -34 12.5t-13 33
t13.5 34t34.5 13.5h378q19 0 32 -14t13 -33q0 -20 -13 -33t-34 -13z" />
    <glyph glyph-name="uniE635" unicode="&#xe635;" 
d="M683 64q0 -9 -6 -15t-16 -6h-298q-10 0 -16 6t-6 15v107q0 9 6 15t16 6h64v213h-64q-10 0 -16 6t-6 16v106q0 10 6 16t16 6h213q9 0 15 -6t6 -16v-341h64q10 0 16 -6t6 -15v-107zM427 768q0 9 6 15t15 6h128q9 0 15 -6t6 -15v-107q0 -9 -6 -15t-15 -6h-128q-9 0 -15 6
t-6 15v107zM955 641q-68 118 -186 186.5t-257 68.5t-257 -68.5t-186.5 -186.5t-68.5 -257t68.5 -257t186.5 -186.5t257 -68.5t257 68.5t186.5 186.5t68.5 257t-69 257z" />
    <glyph glyph-name="uniE636" unicode="&#xe636;" 
d="M468 442h-304q-20 0 -26 -19l-58 -202l408 -45l32 154q-32 58 -52 112zM850 137l122 -14l-36 127q-6 -8 -15 -21q-33 -46 -71 -92zM1 -51q-4 -13 4.5 -24t21.5 -11h407l37 181l-414 46zM997 38l-443 48l-37 -172h480q11 0 19 8t8 19q0 5 -2 9zM752.5 752
q68.5 0 117 -48.5t48.5 -117t-48.5 -117t-117 -48.5t-117 48.5t-48.5 117t48.5 117t117 48.5zM741 102q5 -5 11.5 -5t11.5 5q67 71 124 151q136 192 136 330q0 112 -79.5 191.5t-191.5 79.5t-191.5 -79.5t-79.5 -191.5q0 -138 136 -330q57 -80 123 -151z" />
    <glyph glyph-name="uniE637" unicode="&#xe637;" 
d="M401 663q0 45 31.5 77t77.5 32q44 0 76.5 -32t32.5 -77t-32 -77t-77 -32q-46 0 -77.5 31.5t-31.5 77.5zM1022 -22l-91 370q-5 18 -21.5 28.5t-34.5 7.5q-182 -36 -186 -36q-37 -69 -104 -182q-26 -40 -73 -40t-73 40q-97 161 -152 279l-165 -66q-23 -11 -29 -34l-91 -365
q-8 -26 13 -47q19 -19 48 -12l256 68q14 4 27 0l329 -106q7 -2 23 -2l283 36q24 4 34 20q13 22 7 41zM512 191q7 0 16 9q37 60 79 135.5t87 176.5t45 149q0 93 -66.5 159.5t-160.5 66.5t-160.5 -66.5t-66.5 -159.5q0 -48 44.5 -149t87 -176.5t79.5 -135.5q9 -9 16 -9z" />
    <glyph glyph-name="uniE638" unicode="&#xe638;" 
d="M748 264q-24 -38 -53 -80q75 -12 132 -31.5t82.5 -37.5t25.5 -31q0 -11 -16.5 -25t-52 -29.5t-84 -28.5t-119.5 -21.5t-151 -8.5t-151 8.5t-119.5 21.5t-84 28.5t-52 29.5t-16.5 25q0 13 25.5 31t82.5 37.5t132 31.5q-27 39 -53 80q-124 -23 -200 -69.5t-76 -110.5
q0 -48 44 -87t117 -63.5t163.5 -38t187.5 -13.5t187.5 13.5t163.5 38t117 63.5t44 87q0 64 -76 110.5t-200 69.5zM513.5 398q-73.5 0 -126 52.5t-52.5 126t52.5 125.5t126 52t125.5 -52t52 -125.5t-52 -126t-125.5 -52.5zM513 886q-124 0 -212 -88.5t-88 -212.5
q0 -42 24 -104.5t65 -130.5t77 -122.5t76 -108.5q21 -30 58 -30t59 30q39 54 75.5 108.5t77 122.5t65 130.5t24.5 104.5q0 124 -88 212.5t-213 88.5z" />
    <glyph glyph-name="uniE639" unicode="&#xe639;" horiz-adv-x="1025" 
d="M748 264q-23 -38 -52 -81q74 -11 131.5 -30.5t83 -37.5t25.5 -32q0 -10 -16.5 -24t-52.5 -29.5t-84 -28.5t-119.5 -21.5t-151 -8.5t-151 8.5t-119.5 21.5t-84 28.5t-52.5 29.5t-16.5 24q0 14 25.5 32t83 37.5t131.5 30.5q-27 41 -52 81q-125 -24 -201 -70t-76 -111
q0 -47 44 -86.5t117 -64t163.5 -37.5t188 -13t188 13t163.5 37.5t117 64t44 86.5q0 65 -76 111t-201 70zM513.5 398q-73.5 0 -125.5 52.5t-52 126t52 125.5t125.5 52t126 -52t52.5 -125.5t-52.5 -126t-126 -52.5zM513.5 886q-124.5 0 -212.5 -88t-88 -213q0 -42 24.5 -104.5
t65 -130.5t76.5 -122.5t76 -108.5q22 -30 59 -30t58 29q40 55 76 109t77 122.5t65 131t24 104.5q0 125 -88 213t-212.5 88zM514 685q-45 0 -77 -32t-32 -76.5t32 -76.5t76.5 -32t76.5 32t32 76.5t-32 76.5t-76 32z" />
    <glyph glyph-name="uniE63A" unicode="&#xe63a;" 
d="M512 270q-95 0 -162 67t-67 161.5t67 161.5t162 67t162 -67t67 -161.5t-67 -161.5t-162 -67zM512 896q-105 0 -194 -51.5t-140.5 -140.5t-51.5 -194q0 -54 31 -134.5t83.5 -168t99 -157.5t97.5 -140q28 -38 75 -38t75 38q51 70 97.5 139.5t99 157.5t83.5 168.5t31 134.5
q0 105 -51.5 194t-140.5 140.5t-194 51.5z" />
    <glyph glyph-name="uniE63B" unicode="&#xe63b;" horiz-adv-x="1025" 
d="M276 569q-34 -10 -65 6.5t-42 51.5q-10 33 6.5 64.5t50.5 42.5q34 10 65.5 -7t41.5 -51q10 -33 -6.5 -64.5t-50.5 -42.5zM201.5 821q-70.5 -21 -105.5 -86.5t-13 -135.5q10 -36 67 -102.5t105.5 -113t90.5 -83.5q9 -5 14 -3.5t10 10.5q26 97 48 220.5t6 174.5
q-21 70 -86.5 105t-136 14zM610 282q-41 12 -61 49t-8 78q13 40 50 60.5t78 8.5q40 -12 60.5 -49.5t7.5 -78.5q-12 -40 -49 -60.5t-78 -7.5zM702.5 581.5q-84.5 25.5 -162.5 -16.5t-103 -126q-10 -24 -7 -77t10 -104.5t20 -113t23 -103t19 -74.5q5 -11 11.5 -12.5t16.5 3.5
q34 30 76 70t95.5 95t93.5 107.5t50 84.5q25 85 -16.5 163t-126 103.5zM402 101h-2l-31 2q-63 4 -95 6.5t-83.5 8.5t-78.5 13.5t-57 19.5t-42.5 30t-12.5 41q0 27 22.5 47.5t60 32t72 18t72.5 9.5q14 1 24.5 -7.5t11.5 -22t-8 -24.5t-22 -12q-55 -5 -104.5 -17.5
t-60.5 -24.5q20 -33 305 -51l32 -2q13 -1 22 -11.5t9 -24.5q-1 -13 -11 -22t-23 -9zM622 -61q-13 0 -22.5 9t-10.5 22q-1 14 8 24.5t23 11.5l32 2q283 18 305 51q-12 12 -61 24.5t-104 17.5q-14 1 -23 12t-7.5 24.5t12 22.5t24.5 8q38 -4 72 -10t72 -18t60.5 -32.5
t22.5 -46.5q0 -24 -13 -41.5t-42.5 -29.5t-56.5 -20t-79 -14t-83.5 -8.5t-94.5 -6.5l-32 -2h-2z" />
    <glyph glyph-name="uniE63C" unicode="&#xe63c;" 
d="M881 -18q-29 16 -49 41.5t-30 54.5t-12.5 68t0.5 75.5t12 84.5t18.5 87t23.5 91q34 120 34 158q0 112 -70.5 183t-182.5 71q-106 0 -177 -72.5t-71 -181.5q0 -32 6 -64l2 -17h-19q-105 0 -179.5 -72.5t-74.5 -175t75 -175t180.5 -72.5t180 72.5t74.5 175.5q0 107 -81 180
l-3 3q-39 67 -39 145q0 55 32.5 95.5t93.5 40.5t96 -36.5t35 -99.5q0 -23 -29 -128q-15 -56 -23.5 -89t-21 -96t-14.5 -105t2 -99t20.5 -97.5t49.5 -81t81 -66.5q14 -8 30 -8q36 0 53 30q12 21 5.5 44.5t-28.5 35.5zM501 313.5q0 -53.5 -39.5 -91.5t-94.5 -38t-94.5 38
t-39.5 91.5t39.5 92t94.5 38.5t94.5 -38.5t39.5 -92z" />
    <glyph glyph-name="uniE63D" unicode="&#xe63d;" 
d="M964 126h-904q-25 0 -42.5 -17.5t-17.5 -42.5t17.5 -42.5t42.5 -17.5h904q25 0 42.5 17.5t17.5 42.5t-17.5 42.5t-42.5 17.5zM60 185h236l2 1q4 0 7 0.5t5 0.5q2 1 5.5 2t5.5 2t5 3l6 4q1 0 1.5 1t2.5 2q2 2 4 5q2 2 3.5 4t3.5 5t3 5t2 5t1.5 6t1 5.5t1.5 6.5v3l-1 2v7
q-1 3 -1 5q-1 2 -2 5.5t-2 5.5t-3 5l-4 6l-1 2q-49 60 -49 139q0 90 64 154.5t155 64.5t155 -64.5t64 -154.5q0 -79 -49 -139l-2 -2q-1 -3 -3 -6q-2 -2 -3 -4.5t-2 -5.5l-2 -6q0 -2 -1 -5q0 -4 -1 -7v-2q0 -1 1 -3v-7q1 -2 1.5 -5t1.5 -6t2 -5t3 -5t3.5 -5t3.5 -4q2 -3 5 -5
l1 -1l3 -3l4 -2q2 -2 5 -3q3 -2 5 -2q3 -1 8 -3h2q6 -2 11 -2h236q25 0 42.5 18t17.5 42.5t-17.5 42.5t-42.5 18h-133q21 56 21 117q0 92 -45.5 170t-124 123.5t-170.5 45.5t-170.5 -45.5t-124 -123.5t-45.5 -170q0 -61 21 -117h-133q-25 0 -42.5 -18t-17.5 -42.5
t17.5 -42.5t42.5 -18z" />
    <glyph glyph-name="uniE63E" unicode="&#xe63e;" 
d="M827 497.5q-11 -21.5 -28 -22.5q8 -8 13 -22t5 -26q0 -33 -27 -56q9 -15 9 -32.5t-8.5 -34.5t-24.5 -25q3 -13 3 -26q0 -78 -98 -78h-61q-67 0 -174 34l-15 5q-3 1 -7 2.5t-6.5 2t-4.5 1.5q-5 1 -18 5q-11 4 -19 5.5t-17 2.5q-10 2 -16 2h-16v300h16q8 0 18 4.5t20 12.5
t20 17q9 8 20 21q12 13 18 19l16 20q10 12 12 14q28 32 39 43q21 20 30 51q9 30 16 59q6 28 19 40q49 0 65 -22t16 -68q0 -28 -24.5 -75.5t-24.5 -75.5h180q25 0 45 -18t20 -42q0 -16 -11 -37.5zM242 244q-10 -9 -23 -9t-23 9t-10 21t10 21t23 9t23 -9t10 -21t-10 -21z
M878 459q25 35 25 77q0 48 -39 84t-91 36h-90q24 46 24 90q0 55 -17 87q-18 32 -52 47.5t-77 15.5q-26 0 -46 -17q-22 -20 -31.5 -51t-15.5 -59.5t-18 -40.5q-25 -25 -54 -60q-52 -61 -70 -73h-140q-27 0 -46 -17.5t-19 -42.5v-300q0 -25 19 -42.5t46 -17.5h147q11 0 70 -19
q63 -20 110.5 -30.5t96.5 -10.5h65q72 0 116 37.5t43 102.5q31 37 31 84q0 10 -2 20q19 32 19 68q0 17 -4 32z" />
    <glyph glyph-name="uniE63F" unicode="&#xe63f;" 
d="M839 636h-237q9 44 11 65q4 41 -3 70q-9 42 -30 80q-18 35 -58 35h-52q-28 0 -47 -19.5t-19 -46.5v-77q-29 -61 -67 -117q-21 -30 -38 -48q-18 -19 -18 -45v-335q0 -26 19 -45q30 -32 78 -32v0h37q226 1 322 1q38 0 57 32l96 166q14 24 14 51l1 199q0 27 -19.5 46
t-46.5 20zM849 371q0 -13 -6 -24l-97 -165q-3 -6 -9 -6q-96 1 -322 0h-37q-25 0 -39 15q-3 3 -3 7v335q0 4 3 7q20 22 43 56q42 61 73 128h1q3 8 3 96q0 5 3 8t8 3h52q7 0 10 -6q17 -32 25 -66q5 -21 2 -53q-3 -28 -18 -91l-8 -34h306q4 0 7.5 -3.5t3.5 -7.5zM193 567h-36
q-17 0 -29 -12t-12 -29v-350q0 -17 12 -29t29 -12h36q17 0 29 12t12 29v350q0 17 -12 29t-29 12z" />
    <glyph glyph-name="uniE640" unicode="&#xe640;" 
d="M860 628h-291q17 69 20 102q3 39 -3 66q-9 41 -29 78q-12 22 -37 22h-56q-17 0 -29 -12t-12 -29q1 -88 0 -90q-33 -70 -77 -134q-23 -34 -43 -56q-11 -11 -11 -27v-358q0 -17 11 -29q24 -24 63 -24q282 1 384 0q24 0 36 20l103 177q11 19 11 41l1 212q0 17 -12 29t-29 12
zM201 570h-37q-17 0 -29 -12t-12 -29v-351q0 -17 12 -29t29 -12h37q17 0 29 12t12 29v351q0 17 -12 29t-29 12z" />
    <glyph glyph-name="uniE641" unicode="&#xe641;" 
d="M953 819q-74 73 -167 76.5t-162 -64.5l-64 -64q-19 -18 -19 -44.5t18.5 -45t44.5 -18.5t45 18l64 64q23 23 51.5 26.5t53 -7t46.5 -31.5q33 -34 33 -80.5t-33 -80.5l-204 -201q-26 -27 -50 -40.5t-39 -16.5t-30 2.5t-21.5 10.5t-14.5 13q-19 19 -45 18.5t-44.5 -19
t-18.5 -45t18 -44.5q64 -63 143 -63q97 0 192 93l203 202q71 71 71 170.5t-71 170.5zM375 84l-52 -52q-33 -33 -81 -33t-82 33q-33 33 -33 80t33 80l191 190q18 17 36 30.5t41.5 25t47.5 9t43 -21.5t45 -19t44.5 19t18.5 45t-18 45q-70 68 -164 56.5t-183 -99.5l-191 -190
q-71 -70 -71 -169.5t71 -170.5q71 -70 171 -70t171 70l51 52q19 18 19 44.5t-18.5 45t-44.5 18.5t-45 -18z" />
    <glyph glyph-name="uniE642" unicode="&#xe642;" 
d="M527 848q19 0 31 -12t12 -31v-168q0 -19 -12 -32t-31 -13t-32 13t-13 32v168q0 19 13 31t32 12zM325 753l98 -136q16 -22 3.5 -46t-39.5 -24q-21 0 -34 18l-98 136q-11 15 -8.5 32.5t17 28.5t32.5 8.5t29 -17.5zM129 483q-17 5 -25.5 21.5t-3 33.5t22 25.5t33.5 3.5
l160 -52q17 -6 25.5 -22t2.5 -34q-4 -13 -16.5 -21.5t-26.5 -8.5q-1 0 -12 3zM344.5 341q5.5 -17 -3 -33.5t-25.5 -21.5l-160 -52q-5 -2 -14 -2q-14 0 -25.5 8.5t-15.5 21.5q-6 18 2.5 34t25.5 22l160 52q17 5 33.5 -3.5t22 -25.5zM414 244.5q15 -10.5 17.5 -28.5t-8.5 -33
l-98 -136q-13 -18 -36 -18q-27 0 -38.5 24.5t4.5 45.5l98 136q11 15 28.5 17.5t32.5 -8zM527 209q19 0 31 -13t12 -32v-167q0 -19 -12 -32t-31 -13t-32 13t-13 32v167q0 19 13 32t32 13zM701 235l98 -136q16 -21 3.5 -45.5t-39.5 -24.5q-21 0 -34 18l-98 136q-11 15 -8.5 33
t17.5 28.5t32.5 8t28.5 -17.5zM925 318q17 -6 25.5 -22t2.5 -34q-4 -13 -16.5 -21.5t-26.5 -8.5q-7 0 -12 2l-160 52q-17 5 -25.5 21.5t-3 33.5t22 25.5t33.5 3.5zM710 459q-6 18 2.5 34t25.5 22l160 52q17 5 33.5 -3.5t22 -25.5t-3 -33.5t-25.5 -21.5l-160 -51
q-10 -3 -14 -3q-14 0 -25.5 8.5t-15.5 21.5zM665 547q-27 0 -38.5 24t4.5 46l98 136q11 15 29 17.5t32.5 -8.5t17 -28.5t-8.5 -32.5l-98 -136q-13 -18 -36 -18z" />
    <glyph glyph-name="uniE643" unicode="&#xe643;" 
d="M279 617q83 84 201 97t215 -48l-95 -95q-18 -21 -14.5 -36t15.5 -23t24 -8h238h23h70q9 0 15.5 7t6.5 16v328q2 26 -19 37.5t-46 -11.5q-57 -55 -95 -93q-99 72 -218.5 91.5t-236 -17.5t-204.5 -125q-78 -77 -115.5 -176.5t-32.5 -204.5h170q-5 71 20 139.5t78 121.5z
M843 413q5 -72 -20 -140.5t-78 -121.5q-84 -84 -201.5 -97t-214.5 48l95 95q18 21 14.5 36t-15.5 23t-24 8h-238h-23h-70q-9 0 -16 -7t-7 -16v-328q-1 -26 20 -37.5t46 11.5q56 55 95 93q99 -72 218.5 -91.5t236 17.5t204.5 125q77 77 115 176.5t33 205.5h-170z" />
    <glyph glyph-name="uniE644" unicode="&#xe644;" 
d="M512 896q22 0 35.5 -14t13.5 -35v-193q0 -21 -14 -36t-35 -15t-36 15t-15 36v193q0 21 14.5 35t36.5 14zM281 787l112 -155q19 -25 4.5 -52.5t-45.5 -27.5q-24 0 -39 20l-112 156q-13 17 -10 37t20 32.5t37 9.5t33 -20zM57 478q-20 6 -29.5 25t-2.5 39q6 20 24.5 29.5
t38.5 2.5l182 -59q20 -6 29.5 -24.5t3.5 -38.5q-4 -15 -18.5 -25t-30.5 -10q-2 0 -14 4zM303 316q6 -20 -3.5 -38.5t-29.5 -24.5l-182 -59q-6 -2 -16 -2q-16 0 -29.5 9.5t-17.5 24.5q-7 20 2.5 39t29.5 25l183 59q20 6 38.5 -3.5t24.5 -29.5zM383 206q17 -12 20 -32.5
t-10 -37.5l-112 -155q-15 -21 -41 -21q-31 0 -44.5 27.5t5.5 52.5l112 156q13 16 33 19t37 -9zM512 165q21 0 35 -15t14 -36v-191q0 -21 -14 -36t-35 -15t-36 15t-15 36v191q0 21 15 36t36 15zM711 196l112 -156q19 -25 4.5 -52.5t-45.5 -27.5q-24 0 -39 21l-112 155
q-13 17 -10 37.5t20 32.5t37 9t33 -19zM967 290q20 -6 29.5 -25t2.5 -39q-4 -15 -18.5 -25t-30.5 -10q-8 0 -14 3l-182 59q-20 6 -29.5 24.5t-3.5 38.5t24.5 29.5t38.5 3.5zM721 452q-6 20 3.5 38.5t29.5 24.5l182 59q20 7 38.5 -2.5t25 -29.5t-3 -39t-29.5 -25l-183 -57
q-12 -4 -16 -4q-16 0 -29.5 9.5t-17.5 25.5zM670 552q-31 0 -44.5 27.5t5.5 52.5l112 155q13 17 33 20t37 -9.5t20 -32.5t-10 -37l-112 -156q-15 -20 -41 -20z" />
    <glyph glyph-name="uniE645" unicode="&#xe645;" 
d="M597 432l2 -107l-17 -1l-3 108h18zM562 482h104v28h18v-28h16v-18h-16v-164q0 -14 -10 -23.5t-24 -9.5h-30v18h30q6 0 11 4.5t5 10.5v164h-104v18zM523 294q10 0 10 10v78h-57v-78q0 -10 10 -10h37zM476 400h57v65q0 5 -3 8t-7 3h-37q-10 0 -10 -11v-65zM486 276
q-12 0 -20 9.5t-8 25.5v161q0 7 8.5 14.5t19.5 7.5h37q11 0 20 -7.5t9 -14.5v-161q0 -16 -8.5 -25.5t-20.5 -9.5h-37zM945 462h-18v37h18v-37zM955 430h-164v17h164v-17zM860 507q9 -50 15 -76l5 -17q25 -86 80 -134l-12 -14q-60 52 -86 145l-5 18q-6 28 -14 75zM724 449
l54 54v-236h-18v192l-23 -23zM351 538q-2 -5 -13 -16q-7 -7 -10 -25q-1 -2 -2.5 -5.5t-3.5 -6.5t-3 -4q-10 -20 -11 -33q0 -3 2.5 -3.5t4.5 -0.5l2 1q40 25 45 31q3 3 8 2.5t9 -2.5l5 -1q1 -1 2.5 -3t3.5 -7t0.5 -8.5t-12.5 -18.5t-16 -24q-1 -2 -3.5 -6.5t-3.5 -6
t-2.5 -4.5t-3 -4t-4 -3t-5.5 -4q-9 -4 -18 -11.5t-10 -8.5q-1 -8 14 -17q6 -4 11.5 -10.5t9.5 -11.5t4 -5.5t4 -1.5t9.5 -4t11 -7.5t10.5 -7t8 -3t4 -1.5l4 -3q4 -4 9 -6q3 -2 4 -2l-2 11q22 40 22 87q0 48 -23 89t-61 66v-1zM169 284q-4 0 -13 6.5t-10 12.5q0 7 -1.5 11
t-3.5 4h-1l-2 5q-2 3 -4 11.5t-1 17.5q3 1 4.5 4.5t2.5 6.5v3q0 1 -0.5 4t-1.5 12t1 14q4 27 4 47t-2 27q-4 12 -1 16q1 2 5.5 2.5t9.5 -0.5h4q19 2 26 5q4 2 15.5 2.5t16.5 2.5q11 3 22 10q5 4 10 6t8.5 2.5t6 1t4.5 0.5h1q7 -4 10 -7q5 -5 -6 -14q-3 -2 -12 -5l-11 -4
q-6 -1 -10 -2t-5 -2t-2.5 -2t-2.5 -2q-3 -1 -11.5 -2t-13.5 -3q-12 -6 -22 -6q-14 0 -18 -8q-3 -5 -2.5 -17t-0.5 -16q-4 -19 -4 -29q0 -3 0.5 -6.5t1 -5t0.5 -3.5q-5 -7 -3 -24q5 -49 15 -53q9 -1 12.5 -0.5t9 3.5t6.5 3q2 1 35 16q16 7 15 1v-2q-3 -6 -15 -18t-17 -13
q-4 -1 -11 -3t-12 -3q-14 -4 -26 -7zM269 393q3 -5 -2 -20t-11 -21q-6 -4 -22 -10q-6 -2 -8 2t-4 11l-3 19h-7q0 -1 -1 -3t-2 -9.5t-1 -17.5q-18 -15 -23 -20q-4 -3 -6 6q-1 2 -1 3l-5 5q0 8 -2 13q-1 2 -2 5t-1.5 5.5t-1.5 3.5l-8 1l1 5l6 2l11 5h12q13 5 18 5l3 -1h12v15
h-11q-1 -4 -5 -2q-10 4 -12 11q-1 3 -2.5 11t-3.5 13q-6 11 -8 15q-1 3 5 8t9 4q2 0 8 -4t9 -3q6 2 6.5 3.5t5.5 2.5q4 1 7.5 3t6 3.5t3.5 2.5q17 8 22 -9l-4 -13q-5 -9 -6 -18q-7 -11 -14 -16q-10 -7 -6 -15q2 -2 6.5 -2t8 1t3.5 2q0 2 5 3.5t6 0.5t3 -1t3.5 -1t2.5 -4z
M421 263q-4 -2 -6 -1q-22 6 -26 5q-2 -1 -11.5 0t-14.5 4q-15 7 -18 23q-23 30 -33 39l-12 1q-7 -16 -16 -27q-19 -27 -25 -27q-2 0 -6 -6t-10 -7q-24 -6 -31 -1q-5 3 -4 4l3 -1q18 8 23.5 11t21 23t22.5 36l7 32q4 35 5 37q0 1 3 3t8 1.5t8 -6.5q2 -5 2.5 -7.5t-0.5 -3.5
h-1l11 -2q1 0 3.5 5t5 9.5t5 9.5t1.5 7v5q0 1 -2 2.5t-5 -0.5q-6 -2 -25 -5q-6 -1 -17.5 -8t-15.5 -6l-4 5q1 1 2.5 4t3.5 8.5t2 8.5l4 1q3 14 4 19q7 27 12 33q12 17 11 22q-1 8 2 12q1 1 7.5 12t10.5 16q-37 16 -77 16q-77 0 -131 -54t-54 -131t54 -131t131 -54
q48 0 89 22l97 -22zM198 358v6q-3 1 -3 -2v-9q0 -1 -0.5 -1t-0.5 -1q0 -4 2 -1q2 1 2 2v4v2zM232 430q0 3 -5 4l-10 -2v-8q0 -3 1 -4l1 -1q3 -1 5.5 -1t3.5 0.5t2.5 1.5t1.5 2v8zM245 381q-1 0 -4.5 -3.5t-3.5 -6.5l-1 -11q9 -4 13 2q1 1 1 2q4 5 3 15q-1 2 -8 2z" />
    <glyph glyph-name="uniE646" unicode="&#xe646;" 
d="M641 22q-7 -5 -8 -12q0 -9 -5 -61l-5 -47q-1 -10 -4 -16q23 1 23 32v47q-1 28 -1 57zM860 700l5 -4q-2 2 -5 4zM483 896q-27 0 -46 -11l-324 -194q-19 -11 -32 -34t-12 -44l5 -378q0 -22 13.5 -44.5t32.5 -32.5l295 -165l-286 201q-18 12 -29 36t-9 45l33 377
q2 21 17 42.5t35 30.5l342 159q3 2 7 3q-18 9 -42 9zM415 -7l161 -113q11 -8 22 -8q14 0 21 14l-2 -1q-9 0 -20 6zM865 696q16 -12 27 -32.5t11 -39.5l5 -377q0 -22 -12.5 -45t-31.5 -34l-161 -96q-49 -29 -53 -31q-9 -6 -9 -15v-2v-2q1 1 2 1q21 10 57 26l170 79
q20 9 35 30.5t17 43.5l33 376q2 21 -9 45t-29 36zM554 892q-16 0 -29 -5q1 -1 2 -1l330 -184q1 -1 3 -2l-252 177q-22 15 -54 15zM299 562h-1h1zM339 376q-3 -3 -7 -4l-7 -2l-3 -1q0 -1 1.5 -3t2 -3.5t1 -2.5t1 -1.5t1.5 -2.5l2 -6l1 -2l2 -2q1 -2 3 0q1 1 2 1.5t1 2.5l1 9
l1 15v4zM453 411q-2 -1 -3.5 -3t-2.5 -2q-9 -6 -10 -6q-2 -4 -5 -4q-2 0 -9 -6q-2 -1 -2.5 -3t-0.5 -3v-1l1 -3q0 -5 1 -8q1 -7 1 -9l3 -3q8 5 9 6l7 5l4 4q2 4 7 8l4 11l3 15q0 5 -7 2zM395 498q4 2 6 12l3 8q1 4 1 7q0 4 -1.5 4t-3.5 -2q-8 -6 -17 -7q-8 -1 -14 -3l-5 -6
q-1 -2 0 -7q3 -9 2 -14q0 -3 1.5 -3.5t3.5 0.5q1 0 4 1.5t6 2.5q6 1 14 7zM903 624q0 19 -11 39.5t-27 32.5l-5 4q-2 1 -3 2l-330 184q-1 0 -2 1q-4 -1 -7 -3l-342 -159q-20 -9 -35 -30.5t-17 -42.5l-33 -377q-2 -21 9 -45t29 -36l286 -201l182 -102q11 -6 20 -6q1 0 2 1
q3 6 4 16l5 47q5 54 5 61q1 7 8 12v4q0 9 9 15q1 0 9.5 5.5t20.5 12.5t23 13l161 96q19 11 31.5 34t12.5 45zM359 232q-3 -2 -9 -3q-13 -2 -16 -5t-7.5 -2t-6.5 -2q-2 -1 -12 -2l-6 -5q-6 -6 -9 -6l-8 -4q-1 0 -2.5 -1.5t-2.5 -1.5l-7 1q-7 2 -9 3q-7 0 -13 5q-2 2 -4.5 7
t-3.5 9l-2 4l-22 64l-2 12l-2 4q-1 3 -2 13q-1 12 0 16q1 6 1 10q1 6 2 9q6 22 2 47q-6 36 -6 47v12q0 9 0.5 17t0.5 10q1 20 -2 70q-2 40 -2 41q-2 10 -1 16q1 9 3 13q5 10 9 10q15 3 18 -4l4 -2q4 2 6 -2q3 -1 7 1q3 1 9.5 3t7.5 2q7 3 14 3q5 0 9 2h4q3 0 5 2l9 3
q6 2 7 2q4 3 21 6q3 0 4 3l12 2q14 1 17 2l14 6l25 8q4 3 6 5q1 2 8 4q1 0 3 2.5t3 3.5t5 2t5 2q1 0 1.5 1.5t2.5 2.5t5 2q4 2 7.5 1.5t4.5 -0.5q3 1 7.5 -0.5t6.5 -2.5q9 1 13 -6q6 -9 5 -16l-2 -10l-4 -2q-1 -6 -4 -7q-2 -4 -4 -4q-2 -3 -8 -7q-4 -2 -10 -2h-5h-5
q-2 0 -2 -1q-4 -4 -9 -4q-3 0 -4.5 -0.5t-2 -2t-1.5 -1.5q-9 -6 -12 -6q-12 -3 -13 -4q-3 -1 -4 -1q-7 -1 -9 -3q-1 -1 -4 -2.5t-4 -1.5q-10 -7 -17 -6q-1 0 -3 -0.5t-4.5 -1.5t-4.5 -1q-17 -4 -20 -6q-22 -19 -31 -20q-4 0 -6 -2h-1h-4h-4q-12 1 -13 0q-4 -3 -9.5 -3.5
t-10.5 -8.5q-2 -3 -3.5 -6t-2.5 -4q-4 -8 -1 -28q4 -29 -2 -39q-8 -14 -3 -33l10 -35q3 -11 -1 -17q-3 -4 -6 -9q0 -1 -1.5 -2t-1.5 -3q-2 -11 3 -19q4 -8 6 -19.5t3 -19.5v-9v-14q-1 -14 0 -16l4 -12q1 0 2.5 -5t2.5 -7q5 -6 6 -10q0 -5 3 -7q2 -1 2 -4q0 -1 1 -1l6 1
q5 2 14 3q8 1 12 3l8 1l7 3q2 2 13 3q1 0 2.5 1.5t5.5 1.5q7 1 7 4q4 2 7 2l14 5q7 5 10 6q1 1 2.5 1.5t3.5 0.5h3q2 0 4 2.5t3 2.5q3 2 9 3q3 0 11 4t11 7l11 11l4 2q5 -1 4 -5t-1 -11q0 -5 -2 -7q-1 0 -0.5 -2t-0.5 -3l-3 -4q-3 -6 -7 -10q-13 -13 -27 -18l-3 -2
q-1 -1 -4 -1q-2 -1 -4 -4.5t-6 -4.5l-7 -4q-4 -3 -9 -4q-5 -2 -12 -4zM465 346q-3 0 -7 -6q0 -1 -10 -5q-1 0 -5.5 -2t-5.5 -2t-3 -0.5t-4 -0.5t-3 -1q-6 -2 -8 -2q-4 0 -8 -3l-5 -2q-2 6 -6 9q-2 2 -3.5 9.5t-0.5 9.5q1 1 1 7q-1 8 -3 16v1q-2 5 -2 12q0 1 -1 3.5t-1 3.5
q0 2 -1 5l-1 2q-1 4 -4 9l-2 6l-1 13q0 2 1 4t3 3.5t3 2.5q2 3 10 1q9 -3 13 -11q1 0 2 -3t3 -5h5l5 6l22 11q3 1 18 8q7 3 11 4q10 1 13 -4t1 -20q0 -3 -4 -9l-6 -6q0 -1 -0.5 -4t-1 -7.5t-0.5 -6.5q0 -3 -1 -6t-2 -7t-1 -5q-1 -3 -3 -14q0 -6 -2 -7l-2 -4q0 -3 -3 -3z
M373 384q1 -11 0 -13t-1.5 -18t-0.5 -18q0 -4 -2 -6l-2 -1q-1 -1 -1 -2q-2 -4 -7 -6q-13 -5 -15 -8q-1 -1 -1.5 -3t-1.5 -3q-1 -2 -3 -3t-4 -3l-2 -1l-7 -6l-4 -5l-1 -2v-4q1 -3 -0.5 -3.5t-2.5 1.5l-3 2q-2 1 -3 3q-2 6 -3 7q-3 2 -3 7q-3 8 -4 11q0 1 -3.5 13t-3.5 13v4v7
v4q0 9 -7 10q-6 3 -8 6q-3 7 -6 8q-3 2 -2 5l-1 9q0 7 3 10q10 7 16 6l12 -3l4 -4q4 2 11 5l12 2q3 1 7 5q7 3 12 5q4 1 11 0q1 0 4.5 -0.5t4.5 -0.5t4 -4t3 -7zM367 436q-1 -1 -5 -2t-4 -2l-13 -3q-7 -3 -18 9q-1 1 -3.5 4.5t-3.5 5.5q-3 3 -3 13q0 1 -5 22q-4 15 -14 25
q-6 7 -7 12l-3 10q-2 2 -2.5 5t-0.5 5v2q3 8 3 12q1 3 10 8l1 1q3 2 13 0q4 0 23 -11q7 -3 18 4q18 11 29 12q6 1 17 7q1 1 8 7l5 5q1 1 3.5 3t3.5 3q2 2 8 2.5t8 -0.5q9 -2 11 -4q9 -13 10 -16q3 -5 -2 -13l-3 -4t-5 -8q-2 -3 -2.5 -5t-0.5 -5v-6v-9q-1 -15 -6 -25
q-4 -7 -6 -14q-1 -7 -3 -11q-5 -6 -8 -8q-4 -2 -8 -3q-3 -2 -8 -10q-3 -4 -5 -5q-1 -1 -3.5 -1.5t-3 -1.5t-2.5 -2l-3 -1q-1 0 -4.5 -0.5t-4.5 -1.5q-2 -2 -4 -2q-3 0 -7 -3zM857 208q-1 -8 -3 -10q-12 -8 -14 -8q-2 -1 -9 -1t-9 -0.5t-2.5 -1.5t-1.5 -1t-3.5 0.5t-4.5 0.5
h-2q-2 -4 -8 -5q-3 0 -9 0.5t-10 0.5q-4 -1 -11 0q-4 0 -6 -1q0 -1 -4.5 -0.5t-6.5 0.5q-12 -1 -14 -2q-1 -1 -3.5 -1.5t-4 -0.5t-1.5 -1q-1 -1 -4 -0.5t-4 1.5q0 1 -6 1q-1 0 -2.5 2t-3.5 2l-5 5q-5 6 -8 7q-1 0 -5 5q-1 1 -3 2.5t-3.5 4t-3.5 4.5q-3 6 -8 10q-2 2 -4 7
q-2 4 -5 7q-1 1 -1 3l1 3q-3 2 -4 7q-1 1 -6 7q-4 4 -5 6q-1 1 -2.5 2t-3.5 2l-2 1q-1 1 -1 6q-1 2 -8 8.5t-8 9.5q-4 2 -5 4q0 2 -1.5 4t-3.5 4l-2 2q-2 3 -5 5q-1 0 -6 5l-13 12q-11 8 -11 11l-9 12q1 -9 1 -15q0 -12 -5 -18q-6 -7 -6 -11t2 -5l-3 -6v-2q-1 -2 -1.5 -4.5
t-1.5 -2.5q-3 -1 -8 -7t-5 -8t-1 -8t-1 -7q-3 -14 -7 -17l-24 -19l-9 -7q-3 -4 -5 -4q-2 -1 -2 -6q0 -1 -5 -4q-1 -1 -3.5 -4t-3.5 -4q-9 -7 -11 -9q-7 -9 -13 -12q-11 -4 -26 -4q-11 -1 -17.5 -1.5t-10 -1t-4.5 -0.5q-24 -3 -24 9q0 5 8 7q2 0 17 5q1 0 4.5 0.5t4.5 1.5
q10 2 13 4q18 10 20 13l8 10q9 11 17 21.5t9 12.5t2 3t2 3q1 4 3 5l1 1l2 4q1 1 1 3q3 3 13 24.5t12 29.5q6 18 10 52q0 2 1 13.5t2 17.5q4 19 5 24v9v11q0 4 1 5q1 5 1 16.5t5 13.5q17 5 22 4q13 -2 14 -8l4 -7l4 -4q1 -2 2 -5q1 -1 1 -3v-1q3 -2 3 -8l1 -10l2 -2q1 -1 2 1
l2 3q2 3 3 4q0 2 2 4l5 5q2 2 2 3q9 11 15 23q0 2 6.5 16t7.5 17l4 8l2 3l3 7q2 1 3 3q2 2 4 13q1 2 0.5 4t-2.5 1q-6 -4 -6 -9q-1 -5 -7 -9q-3 -2 -4 -3l-2 -3l-3 -1l-8 -4q-6 -4 -7 -4q-7 -2 -8 -2l-8 -2q-4 1 -5 0q-5 -3 -15 -6q-8 -2 -11 -1q-2 0 -5 -0.5t-4 -0.5l-4 -1
q-5 -5 -8 -6l-10 -1q-3 0 -10 -3q-6 -2 -15 1q-6 2 -9 -1q-1 -1 -6 -4.5t-6 -4.5q-1 -2 -1.5 -1.5t-0.5 3.5q1 10 2 12q2 3 3 5t2 2h1q4 5 5 8l11 33l5 17q0 2 1 7v3q0 3 0.5 6t1.5 4q1 2 2 5.5t1 4.5q5 10 7 19q1 2 2.5 14t2.5 14t4.5 12t4.5 11.5t4 11.5l3 10q1 1 6 11.5
t4 11.5l3 3l5 14l6 12q2 4 3.5 6t1.5 6l2 2q1 2 2 3.5t2 4.5t1 4l5 8l3 6q0 2 6 3q1 0 5.5 1.5t6.5 2t7 -0.5q11 -4 15 -8q14 -15 16 -18q3 -6 0 -9q0 -7 -4 -10l-6 -4q-1 -4 -3 -5q0 -2 -3 -5t-4 -3q-1 -2 -3 -10q-3 -17 -5 -19q-3 -4 -5 -10q-1 -7 -4 -8l-4 -12l-3 -10
l-2 -1q-2 -2 -2 -3q-1 -7 -3 -10q-4 -6 -10 -14q-2 -1 -2 -3q-1 -1 -2 -3l-2 -1q-4 -5 -4 -9q1 -19 -2 -28q-4 -5 -4 -8q0 -9 -4 -11l-3 -8l-3 -8l3 -2q5 1 8 2l5 4q6 3 8 3q15 2 20 5q2 1 7 2l5 1q3 2 7 7q2 2 5.5 3.5t4.5 2.5l13 12q5 2 7 2q1 0 7.5 4t8.5 5l10 11
q1 8 3 13q4 8 11 10q16 4 26 0q4 -2 8.5 -4.5t6.5 -4.5l1 -2l10 -8q4 -3 7 -4q2 0 1.5 -2.5t0.5 -3.5l4 -9q0 -1 1.5 -3.5t1.5 -5.5v-5q1 -4 -3 -7q-2 -1 -4 -4t-4 -4q-5 -5 -6 -7q-5 -4 -6 -5q-4 -2 -6 -9q-2 -5 -4 -9q-1 -3 -5.5 -8t-6.5 -6l-5 -6l-5 -10q-4 -7 -4 -8
t-2 -4l-1 -2q-1 -4 -2 -6l-4 -7l-15 -20l-2 -4q0 -1 -5 -9q-3 -5 -7 -6q-2 -1 -5 -3.5t-4 -5.5l-2 -2q0 -1 -5 -3q-2 -1 -9.5 -6t-8 -5.5t-3 0t-3 0t-5 -2.5t-5.5 -2q-6 -2 -8 -7l-2 -5t-4 -8q-6 -11 -9 -11l-3 1h-4l-2 1v-3q3 -1 10 -6q3 -2 9.5 -7.5t13 -10.5t6.5 -6
q2 -1 4.5 -3t3.5 -3q7 -4 10 -8q4 -5 10 -8l16 -13l5 -3q3 -4 7 -5t12 -8l7 -5q4 2 7 -2q1 -3 5 -4l4 -1l12 -8l14 -6l4 -2l5 -5q3 -2 6 -3q5 -1 12 -4q1 -1 4.5 -3.5t5.5 -2.5q3 0 7 -1q7 -2 8 -3l3 -4q4 -1 7 -2l3 -3q5 -3 7 -2l7 -4q10 -7 15 -7q2 1 4.5 1.5t3.5 0.5h4
l9 -9q4 -2 5 -4q0 -1 -1.5 -2.5t-1.5 -3.5z" />
    <glyph glyph-name="uniE647" unicode="&#xe647;" 
d="M182 430q1 -2 0.5 -4t0.5 -3q1 -3 4 -5.5t5 -4.5l3 -2q4 0 5 8q2 6 1.5 7.5t-6.5 6.5q-3 4 -7.5 5t-6.5 0l-2 -1l-2 -3zM174 395q1 0 3 -1l2 -1q2 -1 7 -6q3 -3 7.5 -3t6.5 6q1 3 -5 7h-1q-3 0 -6 2q-6 4 -13 7l-6 -3q-1 -2 -1 -2.5t2.5 -3t3.5 -2.5zM202 345zM325 320
l1 1q1 1 1 2t-1 4t-2 5q0 3 -0.5 13t0.5 12q2 3 -1 9q-1 2 -2 15t-1 14q-1 1 -1 5.5t0.5 9.5t0.5 10v4q0 14 3 20q0 1 0.5 4.5t0.5 5.5v3q-2 5 -11 8q-1 1 -4 -1.5t-4 -4.5l2 -10q0 -20 -1 -29q-2 -8 -20 -19l-10 -1l-1 1q-1 2 -1 7t1.5 9t2.5 7t2 4q0 2 -2 8.5t-5 8.5
l-7 -3l-1 -10q-1 -12 -4 -25q-1 -4 -2.5 -6.5t-3.5 -3.5l-1 -1q-7 -9 -11 -4v9q2 6 3 25q2 28 -7 28q-2 0 -3.5 -2t-2.5 -4l-1 -1l-2 -27q0 -1 -4.5 -4t-9 -6.5t-4.5 -4.5l-1 -5q1 0 1 -1v-6q-1 -2 -4 -5q0 -1 -2.5 -4t-4.5 -5.5t-5 -3.5q-10 -2 -13 -6q-2 -3 -7 -4l-9 -7
q1 -3 2 -4q4 -3 6 -3q5 1 9 3q7 6 11 8l9 5q2 1 4.5 6.5t2.5 7.5q0 1 2 5t3 4q1 4 5 6q5 2 7 -2v-3l-1 -3q0 -7 -6 -18q-3 -7 -17 -18q-5 -4 -5 -5.5t3 -1.5l12 4q6 3 13 10.5t10 13.5l4 7q6 2 12 -3l1 -1q3 -2 3.5 -4.5t0.5 -5.5q1 -5 2 -6t4 -1h1l5 6l3 24h3q1 0 2 -1
q7 -4 13 -2q4 2 7 13q2 3 7 2l1 -14v-7v-4l-1 -2l4 -9q-1 -16 0 -24l2 -12q3 -31 4 -34l6 -6q4 -4 5 -3l1 9l1 4q-3 5 -3 21zM390 385q-2 -3 -5 -3q-13 -2 -16 -1q-4 1 -3 6l4 5q3 2 9 2q3 0 5.5 1t3.5 1h2q2 -2 1.5 -6t-1.5 -5zM389 361q-5 -3 -8 -4l-1 -1q-2 -1 -3.5 -1.5
t-3 0t-2.5 5.5t-1 7q5 2 8 3q8 3 11 1q1 -1 1 -3v-5zM492 399q-1 1 -6 -1l-12 -2l-12 -2q-2 1 -2 5q0 10 4 12q3 2 16 4q3 0 5 1t3 2v4q1 1 2 1q0 1 -2 4t-4 3q-1 0 -3.5 -0.5t-5.5 -1t-4 -0.5q-3 -1 -4 1q0 4 2 14q3 16 1 19q0 1 -1 3.5t-2 5.5l-1 2l-5 4l-2 -8
q0 -3 -3 -14t-4 -13l-1 -17l-4 -4q-1 0 -7.5 -2.5t-8.5 -3.5l-12 -2l-3 -5q6 -12 14 -9l14 4v-8q1 -5 -4 -7h-2q-3 -1 -5 -2l-23 -5q-3 -3 -3 -4q-3 -1 -5 0q-1 1 0 8q1 2 1.5 5.5t1 6t0.5 3t1 0.5q1 1 3 5q2 5 -3 9q-2 1 -7 0.5t-6 -1.5l-12 -6q-5 -1 -8 -1l-13 -4l-13 4
q-3 0 -4 -6l2 -3q4 -9 8 -21q4 -10 5 -20q1 -2 1 -4t0.5 -3.5t0.5 -2.5q2 -6 6 -6q1 0 4.5 1.5t5.5 2.5q2 0 6 1t7 2t4 1q2 0 5.5 3.5t4.5 6.5v4v4q0 1 0.5 1.5t2 1t4.5 0.5h3l7 3q16 0 23 2q10 1 12 5l6 1h1q0 -1 1 -4q2 -8 -3 -11q-2 -1 -11 -3l-8 -1l-3 -1q-2 -2 -4 -2
q-1 0 -4.5 -1t-6.5 -1.5t-4 -0.5l-5 -5q1 -2 3 -3q5 -2 14 1q4 1 12.5 2.5t12.5 2.5q8 2 10 -1q1 -1 0 -4v-3q2 -13 2 -14q0 -2 -5 -6l-24 -3q-1 -2 -2 -3q0 -1 5.5 -4t8.5 -4q11 -4 24 -3q6 1 7 11q0 1 -0.5 4.5t-1 6.5t-0.5 4q0 5 -3 16q-2 8 0 10q1 2 7 5t7 4
q2 1 1.5 3.5t-2.5 3.5q-4 2 -11 -5h-3q-2 0 -3 1v3v5v4q0 3 4 6h3q2 0 5 -0.5t4 -0.5q4 0 7 6q1 3 -4 4zM432 336q-14 1 -20 -1q-2 -1 -4.5 -3t-3.5 -4l-1 -2q1 -2 6.5 -2.5t6.5 -1.5q5 -4 11 -2l6 8q1 3 1 4.5t-1 2.5zM693 325q-17 3 -21 5t-13.5 10.5t-10 10t0.5 3.5
q0 1 6 5.5t8 6.5l5 7q1 2 2.5 3t2.5 1.5t1 1.5q0 7 -3 8q-2 1 -7 3q-3 1 -7 -6q-6 -12 -14 -18q-4 -3 -7 -3h-7q-3 1 -1 8q1 4 6 7q1 0 3 4l2 3q0 1 3.5 3t4.5 3q4 3 9 12q0 1 0.5 6t0.5 9v5q3 1 5 7q0 1 -2.5 3t-5.5 3l-10 3q-3 -1 -7 -3q-3 -1 -6 -4l-3 -3l-1 -1
q-2 -2 -5 -4l-7 -6q0 -1 1 -2.5t4 -4t7 -2.5t6.5 1.5t3.5 2.5l1 2l5 -4q0 -1 -0.5 -3.5t-0.5 -5t-2.5 -5.5t-7.5 -4q-4 -2 -7 0q-4 1 -5 0t-3.5 -8t-3.5 -9q-1 -1 -2 -6.5t-2 -10.5v-5q-2 -21 0 -26q3 -8 9.5 -7.5t6.5 3.5v15v9q0 5 1 5q3 1 4 -1q1 -1 5 -4.5t7 -8.5
q2 -3 4 -5.5t2 -3.5l1 -1q1 0 3.5 -4t6.5 -8l7 -7q5 -5 6 -3l1 1q1 0 6 2q2 1 7 1.5t6 1.5q1 0 5.5 3.5t5.5 4.5q-5 3 -10 4zM579 374q-1 -1 -1 -4.5t-1 -4.5q-3 -4 -5 -5l-5 -1l-1 2q-1 11 0 14q0 1 3 4l3 3q1 1 3 1t3 -1q2 -4 1 -8zM610 405q-1 5 -8 4h-3q-1 0 -7 -2
t-8 -2q-3 1 -3 5.5t3 8.5q2 2 9.5 6.5t8.5 4.5q0 1 -2 5.5t-3 5.5t-7 1t-6 2q0 7 5 9q2 1 -1 6l-12 14q-3 -1 -4 -4t-1 -5l-1 -3v-28q-5 -8 -15 -13q-7 -3 -8 -4q-3 -2 -3 -3t2 -3l3 -3q5 -5 8 -2q7 4 9 2v-3v-5q-2 -4 -7 -5q-5 -2 -10 -6l-6 -1q-7 -2 -12 -7q-5 -4 -4 -5
q0 -1 3.5 -3t4.5 -3l5 -1l12 2q2 -3 2.5 -6.5t-0.5 -5.5v-2q-2 -3 -4 -5l-10 -5q0 -3 1 -4q5 -5 10 -4q2 0 4.5 2t4.5 3l7 -2v-3v-4q-4 1 -5 -2q0 -1 -3 -3t-7 -4t-7 -2q-7 0 -10 -5l-6 -2q-7 -7 1 -7q13 -2 31 7l6 1q-1 -2 0 -4q1 -1 1 -2q2 -4 4 -4l5 7q2 9 2 10q2 0 10 5
l10 11q-1 2 -3 3t-3.5 0.5t-2 -1t-1.5 -1t-3 -1t-4 0.5q-3 1 -3.5 1.5t1.5 5.5q1 4 8.5 7.5t9.5 5.5t-4 9q-4 4 -1 7q0 1 1 10q0 6 6 8q10 3 10 10zM157 322q-2 1 -5 3l-2 2l-2 1q-2 0 -4.5 1t-6 3.5t-6.5 4.5t-5 2.5t-2.5 1t-2.5 3.5t-5 6.5t-7 5.5q-8 5 -7 9t15 12
q6 3 13 16q3 5 9 13.5t7 10.5t0 4.5t-2 3.5l-2 2q-1 0 -2.5 0.5t-5.5 1.5t-4 -1l-26 -18q-4 -2 -5 2q1 7 7 18q0 1 1 3t2 3.5t1 3.5q2 10 6 14q6 6 8 9q0 1 -2.5 4t-5.5 5l-3 2q-2 -1 -5 -5t-5.5 -8.5t-3.5 -5.5q-1 -2 -1 -6q1 -3 -6 -13q-3 -3 -7 -18l-2 -11q-2 1 -2 -1
l-5 -12q-1 -1 2 -2q2 -1 9 3t10 5q10 1 14 2q3 1 3.5 0t0.5 -4l-8 -17l-6 1q1 1 -1 6q-2 3 -4.5 3.5t-4.5 -0.5t-2 -2l-3 -21q0 -3 -3 -18q-4 -9 -13 -20t-12 -13l-14 -6h-1l2 -2q4 -3 18 1q3 0 5.5 3.5t3.5 3.5t4.5 4t6.5 8l3 3q5 6 9 15h7l18 -22q2 -9 10 -13
q3 -2 8.5 -2.5t6.5 0.5q2 0 15 -3q1 -1 8 3q5 2 3 4q-1 1 -14 8zM66 344q2 4 -2 3q-2 -1 -6 -2q-18 -9 -20 -9l-4 -2q-3 -2 -4.5 -2t-7.5 1q-5 1 -8 29q-1 10 2 14q0 1 -0.5 2t-0.5 2v4q0 6 2 17v9q0 8 1 9q3 5 11 5q5 0 12 3q3 1 8 2t6 1q9 4 12 4l6 3q5 1 6 3q7 5 4 7
l-5 4q-8 1 -17 -5q-7 -4 -13 -6q-3 -1 -9.5 -1.5t-8.5 -1.5q-6 -2 -15 -2q-9 1 -10 -1q-2 -3 0 -10q5 -16 -1 -41q-1 -4 -0.5 -8t0.5 -7l1 -3q-1 -6 -4 -7q-1 -5 0 -10t2 -7t2 -2q2 0 3 -9q0 -3 5.5 -7t7.5 -3q7 1 15 3q2 1 6.5 2t5.5 1q3 1 10 8t8 10zM36 356l-1 1v1v5l2 1
v-3q-1 -4 -1 -5zM49 396l-1 7l6 1q3 -1 3 -2q0 -5 -1 -5q-4 -2 -7 -1zM59 369q0 1 2 3t3 2q4 0 4 -1t-0.5 -4.5t-0.5 -4.5q-4 -4 -8 -2v7zM49 370q1 -7 2 -10q0 -3 0.5 -4.5t2 -2.5t4.5 -1q9 3 12 6t6 11.5t2 11.5q-2 3 -4 3h-2q-1 1 -3.5 0t-2.5 -2l-2 -1t-4.5 -1t-3.5 2
q-3 4 3 8l8 9l3 10l3 7q-3 10 -13 5l-2 -1q-1 -1 -3 -2t-4 -1q-3 -1 -3.5 -2t-3.5 -2q-2 0 -6 2l-3 2q-2 1 -5.5 -2t-2.5 -5l4 -8q1 -3 2 -7.5t1 -6.5q2 -4 7 -6q2 -1 3 1h6v-8h-6h-2q-3 0 -10 -3h-7l-7 -3l-3 -1v-2q3 0 4 -1q1 0 1.5 -1.5t0.5 -3.5t1 -3l1 -7q2 0 3 -3v-1
v-1q2 -5 4 -3q12 11 13 11l2 17h4zM722 330.5q0 3.5 2.5 6t6 2.5t5.5 -2.5t2 -6t-2 -5.5t-5.5 -2t-6 2t-2.5 5.5zM797 327q-8 -4 -19 -4q-15 0 -24 9.5t-9 24.5q0 17 10 27.5t26 10.5q10 0 16 -4v-12q-7 5 -16 5q-10 0 -16.5 -7t-6.5 -19t6 -18.5t17 -6.5q8 0 16 6v-12z
M803 358q0 17 9.5 27t25.5 10q15 0 24 -9.5t9 -26.5q0 -16 -9.5 -26t-24.5 -10q-16 0 -25 9.5t-9 25.5zM815 358q0 -12 6 -18.5t16 -6.5q11 0 16.5 6.5t5.5 19t-5.5 19t-16 6.5t-16.5 -7t-6 -19zM981 324h-12v40q0 11 -3.5 15.5t-11.5 4.5q-7 0 -12 -6t-5 -15v-39h-12v41
q0 19 -15 19q-7 0 -11.5 -5.5t-4.5 -15.5v-39h-12v69h12v-11q8 13 22 13q7 0 12 -4t7 -10q8 14 23 14q23 0 23 -28v-43z" />
    <glyph glyph-name="uniE648" unicode="&#xe648;" horiz-adv-x="1025" 
d="M718 662v173q0 21 -14.5 35.5t-35.5 14.5h-618q-21 0 -35.5 -14.5t-14.5 -35.5v-708q0 -30 27 -44l380 -197q13 -7 25 0.5t12 21.5v192h224q21 0 35.5 15t14.5 35v274h-100v-199q0 -10 -7.5 -17.5t-17.5 -7.5h-148v425q0 31 -27 45l-224 115h399q10 0 17.5 -7.5
t7.5 -17.5v-99h100v1zM847 744l162 -163q16 -16 16 -36.5t-16 -35.5l-162 -163q-16 -16 -37 -16.5t-37 15.5q-15 15 -14 36.5t16 36.5l73 73h-284q-24 0 -38 17q-18 18 -14 45.5t26 40.5q12 6 26 6h284q-72 73 -73 73q-15 15 -16 36.5t14 36.5t36.5 14.5t37.5 -16.5z" />
    <glyph glyph-name="uniE649" unicode="&#xe649;" 
d="M488 282q10 -8 24 -8t23 8l465 340q10 7 17 3.5t7 -15.5v-615q0 -12 -8.5 -20.5t-20.5 -8.5h-966q-12 0 -20.5 8.5t-8.5 20.5v615q0 12 7 15.5t17 -3.5zM995 802q12 0 20.5 -8.5t8.5 -20.5v-4q0 -12 -7 -25.5t-17 -20.5l-464 -345q-10 -6 -24 -6t-24 6l-464 345
q-10 6 -17 19.5t-7 25.5v5q0 12 8.5 20.5t20.5 8.5h966z" />
    <glyph glyph-name="uniE64A" unicode="&#xe64a;" horiz-adv-x="1030" 
d="M902 459l-387 -266l-388 266l-127 87v-569h1029v569zM157 732h715v-198l-357 -245l-358 245v198zM109 494l388 -265q8 -5 17.5 -5t17.5 5l388 265q13 9 13 24v244q0 12 -9 20.5t-22 8.5h-775q-13 0 -22 -8.5t-9 -20.5v-244q0 -15 13 -24zM278 607h454q14 0 23.5 9.5
t9.5 22.5t-9.5 22.5t-23.5 9.5h-454q-14 0 -23.5 -9.5t-9.5 -22.5t9.5 -22.5t23.5 -9.5zM765 528q0 14 -9.5 23t-23.5 9h-454q-14 0 -23.5 -9t-9.5 -22.5t9.5 -22.5t23.5 -9h454q14 0 23.5 9t9.5 22z" />
    <glyph glyph-name="uniE64B" unicode="&#xe64b;" 
d="M538 82q-68 -68 -164 -68t-164 68t-68 164t68 164t164 68t164 -68t68 -164t-68 -164zM953 896h-261q-29 0 -50 -21t-21 -50t21 -50t50 -21h90l-199 -199q-94 65 -209 65q-75 0 -143.5 -28.5t-121.5 -81.5q-53 -54 -81 -123.5t-28 -140.5t28 -141t81 -124
q53 -52 121.5 -80.5t143.5 -28.5t143 28.5t121 80.5q63 64 90.5 147.5t15.5 169t-61 157.5l199 199v-90q0 -29 21 -50t50 -21t50 21t21 50v261q0 29 -21 50t-50 21z" />
    <glyph glyph-name="uniE64C" unicode="&#xe64c;" 
d="M333 432h23l11 20q9 14 22 25l97 180l-116 215q-8 15 -24 21t-32 0l-185 -69q-21 -7 -28 -28t5 -39l207 -327q10 2 20 2zM923 796q-8 21 -28 28l-185 69q-16 6 -32 0t-24 -21l-202 -375q22 -1 40 -12l20 -11l20 11q21 12 45.5 12t45.5 -12t34 -33l11 -20h23q10 0 20 -2
l207 327q12 18 5 39zM687 197l-88 -64l34 -103q5 -15 -8 -24q-6 -4 -13 -4t-13 4l-87 64l-87 -64q-13 -9 -26 0t-8 24l34 103l-88 64q-13 9 -8 24t21 15h108l33 102q5 15 21 15t21 -15l33 -102h108q16 0 20.5 -15t-7.5 -24zM779 267l-42 24l-1 49q0 19 -13 32.5t-32 13.5
h-49l-25 43q-10 16 -28 21t-34 -5l-43 -24l-43 24q-16 10 -34 5t-28 -21l-25 -43h-49q-19 0 -32 -13.5t-13 -32.5l-1 -49l-42 -24q-16 -10 -21 -28t4 -35l25 -42l-25 -43q-9 -16 -4 -34.5t21 -27.5l42 -25l1 -49q0 -19 13 -32t32 -14h49l25 -42q10 -17 28 -21.5t34 4.5
l43 24l43 -24q10 -6 22 -6q27 0 40 23l25 42h49q19 1 32 14t13 32l1 49l42 25q16 9 21 27.5t-4 34.5l-25 43l25 42q9 17 4 35t-21 28z" />
    <glyph glyph-name="uniE64D" unicode="&#xe64d;" 
d="M298 250q-18 0 -29 4.5t-14 9.5l-2 4l-154 -301l123 13l68 -102q9 19 24 49.5t46 95t51.5 107.5t20.5 42q-20 1 -33 9t-20 19t-15.5 22t-24.5 19.5t-41 8.5zM512 344q-85 0 -145 60t-60 144.5t60 144.5t145 60t145 -60t60 -145t-60 -144.5t-145 -59.5zM638 231
q29 49 85 49.5t57 56.5t49 85q48 28 21 77q-28 49 0 98q27 49 -21 78t-49 85t-57 56q-56 1 -85 49q-28 49 -77 21q-49 -27 -98 0q-49 28 -78 -21q-28 -48 -84 -49q-56 0 -57 -56.5t-49 -84.5q-48 -29 -21 -78q28 -49 0 -98q-27 -49 21 -77q48 -29 49 -85t57 -56.5t85 -49.5
q28 -48 77 -21t98 0t77 21zM769 257q-39 -4 -61.5 -12t-28.5 -15t-12 -18t-13 -17q-13 -14 -29.5 -20t-26.5 -6l-10 1l173 -298l42 110l122 -15z" />
    <glyph glyph-name="uniE64E" unicode="&#xe64e;" 
d="M733 296q-35 0 -59.5 24.5t-24.5 59t24.5 59.5t59.5 25t59.5 -25t24.5 -59.5t-24.5 -59t-59.5 -24.5zM514 296q-35 0 -59.5 24.5t-24.5 59t24.5 59.5t59.5 25t59.5 -25t24.5 -59.5t-24.5 -59t-59.5 -24.5zM295.5 296q-34.5 0 -59.5 24.5t-25 59t25 59.5t59.5 25t59 -25
t24.5 -59.5t-24.5 -59t-59 -24.5zM814 719h-600q-50 0 -86 -36t-36 -86v-428q0 -50 36 -86t86 -36v-175l267 175h333q51 0 86.5 36t35.5 86v428q0 50 -35.5 86t-86.5 36z" />
    <glyph glyph-name="uniE64F" unicode="&#xe64f;" 
d="M709 428l-69 -67q-14 -14 -10 -33l16 -94q2 -13 -9 -21q-6 -5 -13 -5q-5 0 -10 3l-85 44q-8 4 -17 4t-18 -4l-84 -44q-5 -3 -10 -3q-7 0 -13 5q-11 8 -9 21l16 94q4 19 -10 33l-69 67q-9 9 -5 22t18 15l94 14q19 3 28 20l42 86q6 12 20 12t20 -12l42 -86q9 -17 28 -20
l94 -14q14 -2 18 -15t-5 -22zM812 719h-600q-50 0 -86 -36t-36 -86v-428q0 -50 36 -86t86 -36v-175l267 175h333q50 0 86 36t36 86v428q0 50 -36 86t-86 36z" />
    <glyph glyph-name="uniE650" unicode="&#xe650;" 
d="M835 411h-269v269h269v-269zM754.5 88q-32.5 0 -56.5 24t-24 56.5t24 56.5t56.5 24t56.5 -24t24 -56.5t-24 -56.5t-56.5 -24zM458 411h-269v269h269v-269zM269.5 88q-32.5 0 -56.5 24t-24 56.5t24 56.5t56.5 24t56.5 -24t24 -56.5t-24 -56.5t-56.5 -24zM512 896
q-65 0 -115 -3t-102 -11t-88.5 -23t-66 -38.5t-44.5 -58.5t-15 -82v-512q0 -76 56 -132t132 -56l-80 -81v-27h646v27l-80 81q76 0 132 56t56 132v512q0 47 -15 82t-44.5 58.5t-66 38.5t-88.5 23t-102 11t-115 3z" />
    <glyph glyph-name="uniE651" unicode="&#xe651;" 
d="M768 128h-512v640h512v-640zM512.5 -64q-26.5 0 -45.5 18.5t-19 45t19 45.5t45.5 19t45 -19t18.5 -45.5t-18.5 -45t-45 -18.5zM384 848h256v-32h-256v32zM736 896h-448q-40 0 -68 -28t-28 -68v-832q0 -40 28 -68t68 -28h448q40 0 68 28t28 68v832q0 40 -28 68t-68 28z
" />
    <glyph glyph-name="uniE652" unicode="&#xe652;" 
d="M1021 397l-7 11l-136 137q-10 10 -24.5 10t-24.5 -10t-10 -24.5t10 -24.5l78 -78h-361v361l78 -78q10 -10 24.5 -10t24.5 10t10 24.5t-10 23.5l-137 137l-11 7l-13 3l-13 -3l-11 -7l-137 -137q-10 -9 -10 -23.5t10 -24.5t24.5 -10t24.5 10l78 78v-361h-361l78 78
q10 10 10 24.5t-10 24.5t-24.5 10t-24.5 -10l-136 -137l-7 -11l-3 -13l3 -13l7 -11l136 -137q10 -10 24.5 -10t24.5 10t10 24.5t-10 24.5l-78 78h361v-361l-78 78q-10 10 -24.5 10t-24.5 -10t-10 -24.5t10 -23.5l137 -137l11 -7l13 -3l13 3l11 7l137 137q10 9 10 23.5
t-10 24.5t-24.5 10t-24.5 -10l-78 -78v361h361l-78 -78q-10 -10 -10 -24.5t10 -24.5t24.5 -10t24.5 10l136 137l7 11l3 13z" />
    <glyph glyph-name="uniE653" unicode="&#xe653;" horiz-adv-x="1025" 
d="M727 391l-211 213l150 149l212 -211zM331 -1l-210 -3l3 219l307 303l211 -212zM624 879l-602 -597q-16 -16 -18 -42l-4 -304q0 -28 18 -44q20 -20 42 -20h1l297 6q22 0 43 20l606 602q18 17 18 41.5t-18 42.5l-297 295q-19 17 -44 17t-42 -17z" />
    <glyph glyph-name="uniE654" unicode="&#xe654;" 
d="M959 587l-42 -45l-256 271l42 46q36 37 86 37t85 -37l85 -91q35 -37 35 -90.5t-35 -90.5zM378 61q-9 -10 -9 -23t9 -22.5t21.5 -9.5t20.5 9l442 469l-43 45zM165 287q-9 -10 -9 -23t8.5 -22.5t21 -9.5t21.5 10l441 468l-42 45zM702 653l-442 -468q-42 -45 -10 -79
q33 -35 75 10l442 468zM319 -46q-19 20 -24 54q-11 -2 -18 -2q-50 0 -86 38q-35 38 -35 90q0 6 2 19q-31 4 -52 27q0 1 -1 2.5t-2 2.5l-73 -313l293 78q0 1 -1.5 2t-2.5 2z" />
    <glyph glyph-name="uniE655" unicode="&#xe655;" 
d="M213 654q0 -22 -15 -38t-36 -16h-110q-21 0 -36 16t-15 38t15 38t36 16h110q21 0 36 -16t15 -38zM213 409q0 -22 -15 -38t-36 -16h-110q-21 0 -36 16t-15 38t15 38t36 16h110q21 0 36 -16t15 -38zM213 164.5q0 -22.5 -15 -38.5t-36 -16h-110q-21 0 -36 16t-15 38.5t15 38
t36 15.5h110q21 0 36 -15.5t15 -38zM902 149l-20 -17q-52 -55 -134 -56q-135 -2 -281 167t-126 304q12 81 74 126l20 17q13 12 26 14t24.5 -5t21.5 -18t21 -28l16 -25q15 -24 21.5 -42.5t3.5 -38.5t-21 -35l-22 -20q-2 -1 -10 -6.5t-12 -10t-10 -13.5t-4.5 -21t7 -28.5
t21 -39.5t39.5 -51q28 -32 52 -51.5t38.5 -26.5t29 -5t20 5.5t14.5 13.5l9 9l23 20q17 15 37.5 15.5t37.5 -8.5t38 -27l23 -20q21 -18 31.5 -32.5t10 -32t-18.5 -33.5zM863 896h-596q-64 0 -110 -43.5t-50 -106.5h55q36 0 62 -27t26 -65t-26 -65t-62 -27h-55v-60h55
q36 0 62 -27t26 -65t-26 -64.5t-62 -26.5h-55v-61h55q36 0 62 -27t26 -64.5t-26 -64.5t-62 -27h-55v-42q0 -67 46.5 -114t113.5 -47h596q67 0 113.5 47t46.5 114v702q0 67 -46.5 114t-113.5 47z" />
    <glyph glyph-name="uniE656" unicode="&#xe656;" horiz-adv-x="1026" 
d="M842 567l-68 -68q86 -57 142 -145q-58 -91 -148 -149q-114 -73 -250 -73q-50 0 -100 11l-77 -77q86 -29 177 -29q164 0 299.5 86.5t207.5 230.5q-65 130 -183 213zM518 170q105 0 179.5 74t74.5 179q0 33 -9 65l-310 -310q32 -8 65 -8zM962 861q-11 11 -24.5 11t-21.5 -6
l-7 -5l-218 -218q-84 28 -173 28q-163 0 -299 -87t-207 -230q64 -128 179 -211l-179 -179q-3 -3 -7 -8.5t-4.5 -19.5t11 -25.5t25 -11.5t20.5 6l8 5l897 897q1 0 5.5 8.5t5.5 20.5t-11 25zM259 211q-84 57 -138 143q57 91 147 149q6 3 12 7q-15 -42 -15 -87q0 -86 52 -154z
M409 361q-35 5 -58 31.5t-23 62.5q0 39 28 67t67 28q36 0 62.5 -23t31.5 -58z" />
    <glyph glyph-name="uniE657" unicode="&#xe657;" 
d="M959 782h-894q-27 0 -46 -19t-19 -46v-666q0 -27 19 -46t46 -19h894q27 0 46 19t19 46v666q0 27 -19 46t-46 19zM959 244l-128 117q-15 13 -34.5 12.5t-32.5 -14.5l-130 -129l-256 305q-14 17 -36.5 17.5t-37.5 -17.5l-239 -277v459h894v-473zM772 457q37 0 63 26
t26 63.5t-26 63.5t-63 26t-63 -26t-26 -63.5t26 -63.5t63 -26z" />
    <glyph glyph-name="uniE658" unicode="&#xe658;" 
d="M915 13q-60 0 -113 85t-66 215h108q29 0 49.5 21t20.5 50t-20.5 50t-49.5 21h-108q13 130 66 215t113 85q29 0 49.5 20.5t20.5 50t-20.5 50t-49.5 20.5q-82 0 -151.5 -57.5t-114 -158t-55.5 -225.5h-164q-11 125 -55.5 225.5t-114 158t-151.5 57.5q-29 0 -49.5 -20.5
t-20.5 -50t20.5 -50t49.5 -20.5q60 0 113 -85t66 -215h-108q-29 0 -49.5 -21t-20.5 -50t20.5 -50t49.5 -21h108q-13 -130 -66 -215t-113 -85q-29 0 -49.5 -20.5t-20.5 -50t20.5 -50t49.5 -20.5q82 0 151.5 57.5t114 158t55.5 225.5h164q11 -125 55.5 -225.5t114 -158
t151.5 -57.5q29 0 49.5 20.5t20.5 50t-20.5 50t-49.5 20.5z" />
    <glyph glyph-name="uniE659" unicode="&#xe659;" 
d="M900 504h-270v272q0 49 -35 84.5t-84.5 35.5t-84.5 -35.5t-35 -84.5v-272h-270q-50 0 -85 -35t-35 -85t35 -85t85 -35h270v-272q0 -49 35 -84.5t84.5 -35.5t84.5 35.5t35 84.5v272h270q50 0 85 35t35 85t-35 85t-85 35z" />
    <glyph glyph-name="uniE65A" unicode="&#xe65a;" 
d="M970 270q-10 35 -24.5 63t-26.5 41.5t-20.5 24.5t-8.5 17q3 59 -1 75t-12 23t-13 8.5t-5 4.5q0 100 -46 185t-125 134.5t-172 49.5t-172 -49.5t-124.5 -134.5t-45.5 -185q0 -7 -4 -9t-11 -7.5t-12 -19.5q-2 -10 -1.5 -13.5t1.5 -21.5t0 -40q0 -6 -16 -28t-38 -55.5
t-32 -62.5q-20 -49 -18.5 -96.5t28.5 -66.5q24 -18 59 48q15 25 17 25q3 -11 8 -23q20 -54 61 -101q2 -3 -7 -9t-26 -20.5t-28 -32.5q-8 -13 -8.5 -29t8 -32t24.5 -29.5t44 -22t64 -8.5q45 0 82 6t58 14.5t35 16.5t20 14l6 6q2 -1 12 -0.5t13 0.5h24q1 0 12 -7t29 -16.5
t40 -18t52.5 -13.5t61.5 -2q37 4 65 11t44.5 14t26.5 17.5t13.5 18.5t2.5 20t-3 18.5t-6 18.5q-1 2 -1 3q-3 8 -8.5 16t-11.5 14l-14 10q-6 6 -12 9.5t-11 6.5l-7 4l-3 2q8 9 15 18t12 15.5t10 16t7.5 13.5t6.5 15.5t5 14t5.5 16t5.5 15.5q2 7 15 -15q32 -52 47 -60
q11 -6 20 1.5t15.5 24.5t9.5 53t-11 86z" />
    <glyph glyph-name="uniE65B" unicode="&#xe65b;" 
d="M93 244h279v-278h-279v278zM0 -128h465v465h-465v-465zM186 151h93v-93h-93v93zM745 -35h93v-93h-93v93zM931 -35h93v-93h-93v93zM931 337v-93h-93v93h-279v-465h93v279h93v-93h279v279h-93zM93 803h279v-279h-279v279zM0 431h465v465h-465v-465zM186 710h93v-93h-93v93z
M652 803h279v-279h-279v279zM559 431h465v465h-465v-465zM745 710h93v-93h-93v93z" />
    <glyph glyph-name="uniE65C" unicode="&#xe65c;" 
d="M220 438l68 -46v386q0 20 15 35t36 15h346q21 0 36 -15t15 -35v-386l68 46l93 63l30 20l-123 75v182q0 49 -35 83.5t-84 34.5h-346q-49 0 -84 -34.5t-35 -83.5v-182l-123 -75l30 -20zM512 158l-423 286v-513q0 -24 17.5 -41.5t41.5 -17.5h728q24 0 41.5 17.5t17.5 41.5
v513zM507 700q57 0 97.5 -27.5t40.5 -81.5q0 -24 -13 -45.5t-29.5 -33.5t-34 -24.5t-22.5 -20.5q-3 -5 -8 -19t-12.5 -20t-23.5 -6q-17 0 -26 11t-9 25q0 22 15 41t32.5 30t32.5 28t15 34q0 22 -14 34.5t-38 12.5t-37 -11t-17 -24.5t-14 -25t-28 -11.5q-15 0 -25 9t-10 24
q0 40 38.5 70.5t89.5 30.5zM504 386q18 0 31.5 -13t13.5 -31.5t-13.5 -31.5t-32 -13t-31.5 13t-13 31.5t13 31.5t32 13z" />
    <glyph glyph-name="uniE65D" unicode="&#xe65d;" 
d="M498 896q56 0 108.5 -10t99.5 -31.5t82 -53t55 -78.5t20 -104q0 -50 -22 -94.5t-56.5 -75.5t-69.5 -56t-68 -48t-44 -40q-9 -12 -16.5 -30.5t-13 -32t-15.5 -26.5t-28 -20t-45 -7q-44 0 -68.5 28t-24.5 64q0 39 19 73.5t47 58t60.5 49t60.5 46.5t47 50.5t19 60.5
q0 56 -37 87.5t-102 31.5q-37 0 -64 -10t-42 -26t-26 -35.5t-20 -39t-20.5 -35.5t-31.5 -26t-48 -10q-40 0 -66.5 22t-26.5 62q0 66 47 125.5t125 95t165 35.5zM491 99q48 0 82.5 -33.5t34.5 -80t-34.5 -80t-83 -33.5t-83.5 33.5t-35 80t35 80t84 33.5z" />
    <glyph glyph-name="uniE65E" unicode="&#xe65e;" 
d="M275 159l329 269l-306 52h465l-283 -257l294 -64h-499zM1024 507q0 7 -0.5 8t-4.5 1h-6h-114h-193l-45 81l-125 239h-22l-114 -239l-45 -81h-193h-162v-6l64 -45l179 -159l-40 -363q0 -8 3.5 -9.5t21.5 -1.5l296 181l295 -181q9 0 12 1.5t11 9.5l-56 363l170 146z" />
    <glyph glyph-name="uniE65F" unicode="&#xe65f;" 
d="M850 8q-73 30 -148 30q-81 0 -155 -31v501q74 48 156 48q77 0 147 -51v-108h-26q-28 0 -47 -20t-19 -48v-68q0 -28 19 -47t47 -19h26v-187zM305 38q-80 0 -149 -30v187h45q27 0 46 19t19 47v68q0 28 -19 48t-46 20h-45v108q67 51 148 51q73 0 145 -42q1 -1 4.5 -5t5.5 -6
v-496q-77 31 -154 31zM958 397h-42v124q0 16 -12 27q-92 75 -202 75h-8q2 13 2 26q0 83 -58.5 142t-141.5 59t-142 -59t-59 -142q0 -12 2 -26q-107 -2 -196 -76q-13 -10 -13 -26v-124h-21q-28 0 -47.5 -20.5t-19.5 -47.5v-68q0 -28 19.5 -47t47.5 -19h21v-244q0 -20 19 -30
q7 -3 15 -3q11 0 20 6v1q10 6 24 14t55 20t83 12q89 0 172 -47q18 -7 31 -5.5t22 5.5q86 47 172 47q43 0 85 -12.5t56 -21t21 -13.5q9 -6 20 -6q8 0 15 3q18 10 18 30v244h42q27 0 46.5 19t19.5 47v68q0 28 -19.5 48t-46.5 20z" />
    <glyph glyph-name="uniE660" unicode="&#xe660;" horiz-adv-x="1025" 
d="M277 15q0 -29 -11 -53.5t-29.5 -43t-43.5 -29.5q-25 -10 -53 -10q-29 0 -54 10q-24 11 -43 29q-18 19 -29 43.5t-11 53.5t11 54t29 43q19 19 43.5 29.5t53.5 10.5q28 0 53 -10.5t44 -29.5q18 -18 29 -43t11 -54zM97 527q116 0 217.5 -44t177 -119.5t119.5 -177.5
q44 -101 44 -217q0 -40 -28.5 -68.5t-68.5 -28.5t-69 28.5t-29 68.5q0 75 -28.5 141.5t-77.5 115.5t-115 77.5t-142 28.5q-40 0 -68.5 29t-28.5 69t28.5 68.5t68.5 28.5zM97 896q128 0 246.5 -33t221.5 -93.5t187.5 -145t145 -187.5t93.5 -221.5t33 -246.5
q0 -40 -28.5 -68.5t-69 -28.5t-69 28.5t-28.5 68.5q0 101 -26 194.5t-74 175t-114 148.5q-67 66 -148.5 113.5t-175 74t-194.5 26.5q-40 0 -68.5 28.5t-28.5 69t28.5 69t68.5 28.5z" />
    <glyph glyph-name="uniE661" unicode="&#xe661;" 
d="M1002.5 874.5q-23.5 23.5 -57.5 21.5l-649 -45q-31 -2 -51 -25t-18 -53.5t25.5 -50.5t53.5 -18l452 31l-420 -420l-180 180q-22 22 -52.5 22t-52 -21.5t-21.5 -52t22 -52.5l180 -181l-212 -212q-22 -21 -22 -52t21.5 -52.5t52 -21.5t52.5 22l212 212l181 -180
q22 -22 52.5 -22t52 21.5t21.5 52t-22 52.5l-180 180l420 420l-31 -452q-2 -30 18 -53.5t51 -25.5h5q29 0 50 20t23 49l45 649q2 34 -21.5 57.5z" />
    <glyph glyph-name="uniE662" unicode="&#xe662;" 
d="M737 444q-24 0 -40 -16q-14 -15 -16 -35l83 44q-12 7 -27 7zM830 351q-8 -18 -23 -33q-29 -29 -70.5 -29t-70.5 29t-29 70.5t29 71t71 29.5q55 0 82 -41q0 -1 1 -1q5 -7 3 -15.5t-10 -12.5l-120 -65l4 -4q17 -17 39.5 -17t39.5 17q8 8 12 17q5 13 20 11l7 -1
q9 -1 13.5 -9t1.5 -17zM613 311q0 -8 -5.5 -13.5t-13.5 -5.5h-6q-8 0 -13.5 5.5t-5.5 13.5v254q0 8 5.5 13.5t13.5 5.5h6q8 0 13.5 -5.5t5.5 -13.5v-254zM548 311q0 -8 -6 -13.5t-13 -5.5h-7q-8 0 -13.5 5.5t-5.5 13.5v78q0 23 -16 39t-39 16t-39.5 -16t-16.5 -39
t16.5 -39.5t39.5 -16.5q8 0 16 3q15 4 22 -10l3 -6q4 -8 0.5 -16t-11.5 -11q-14 -4 -30 -4q-42 0 -71 29t-29 70.5t29 71t70.5 29.5t71 -29.5t29.5 -70.5v-78zM327 308q-19 -16 -45 -16h-70q-8 0 -13.5 5.5t-5.5 13.5v5q0 8 5.5 13.5t13.5 5.5h70q17 0 17 12q0 11 -38 22
q-43 13 -55 29q-13 15 -13 36q0 22 17 37t41 15h66q8 0 13.5 -5.5t5.5 -13.5v-6q0 -8 -5.5 -13.5t-13.5 -5.5h-66q-14 0 -14 -10q0 -12 50 -30q58 -20 58 -54q0 -24 -18 -40zM956 301q22 14 33 22.5t23 25.5t12 35t-12 35t-23 25.5t-33 22.5q-31 20 -36 27q1 8 18 43
q9 16 13 25.5t9 25t3.5 28t-8.5 24.5q-8 15 -26.5 23.5t-32.5 10.5t-40 3q-38 2 -45 6q-4 7 -6 45q-1 26 -3 40t-10 32t-24 27q-13 8 -30 8q-25 0 -73 -25q-34 -17 -43 -18q-7 5 -27 36q-14 22 -22.5 33t-25.5 23t-35 12t-35 -12t-25.5 -23t-22.5 -33q-20 -31 -27 -36
q-9 1 -43 18q-48 25 -73 25q-16 0 -30 -8q-15 -8 -23.5 -26.5t-10.5 -32.5t-3 -40q-2 -38 -6 -45q-7 -4 -45 -6q-26 -1 -40 -3t-32 -10.5t-27 -23.5q-7 -12 -8.5 -24.5t3.5 -28t9 -25t13 -25.5q17 -35 18 -43q-5 -7 -36 -27q-22 -14 -33 -22.5t-23 -25.5t-12 -35t12 -35
t23 -25.5t33 -22.5q31 -20 36 -27q-1 -8 -18 -43q-9 -16 -13 -25.5t-9 -25t-3.5 -28t8.5 -24.5q9 -16 27 -24t32 -10t40 -3q38 -2 45 -6q4 -7 6 -45q1 -26 3 -40t10.5 -32.5t23.5 -26.5q14 -8 30 -8q25 0 73 25q34 17 43 18q7 -5 27 -36q14 -22 22.5 -33t25.5 -23t35 -12
t35 12t25.5 23t22.5 33q20 31 27 36q9 -1 43 -18q48 -25 73 -25q17 0 30 8q16 8 24 26.5t10 32.5t3 40q2 38 6 45q7 4 45 6q26 1 40 3t32.5 10t26.5 24q7 12 8.5 24.5t-3.5 28t-9 25t-13 25.5q-17 35 -18 43q5 7 36 27z" />
    <glyph glyph-name="uniE663" unicode="&#xe663;" 
d="M589 397q-13 0 -23 10t-10 23l-26 236q0 14 9.5 23.5t23.5 9.5h94q14 0 23.5 -9.5t9.5 -23.5l-26 -236q0 -13 -10 -23t-23 -10h-42zM656 289q0 -11 -7.5 -18.5t-18.5 -7.5h-40q-11 0 -18.5 7.5t-7.5 18.5v40q0 11 7.5 18.5t18.5 7.5h40q11 0 18.5 -7.5t7.5 -18.5v-40z
M391.5 263.5q-89.5 89.5 -89.5 217t89.5 217.5t217 90t217.5 -90t90 -217.5t-90 -217t-217.5 -89.5t-217 89.5zM902 187q80 80 108.5 187t0 214t-108 186.5t-186.5 108t-214 0t-187 -108.5q-102 -102 -118.5 -242t55.5 -259q7 -12 -2 -21l-212 -212q-32 -32 -37 -71t22 -67
l7 -7q28 -27 67 -22t71 37l212 212q4 4 9.5 4.5t8.5 -0.5l3 -2q119 -72 259 -55.5t242 118.5z" />
    <glyph glyph-name="uniE664" unicode="&#xe664;" 
d="M593 364l-26 -35l-35 -25q-67 -48 -148 -48q-106 0 -181 75t-75 181t75 181t181 75t181 -75t75 -181q0 -81 -47 -148zM1005 -18l-308 308q71 100 71 222q0 104 -51.5 192.5t-140 140t-192.5 51.5t-192.5 -51.5t-140 -140t-51.5 -192.5t51.5 -192.5t140 -140t192.5 -51.5
q122 0 222 71l309 -308q18 -19 44.5 -19t45.5 19t19 45.5t-19 45.5z" />
    <glyph glyph-name="uniE665" unicode="&#xe665;" 
d="M398 647q-95 -30 -146 -103q-7 -10 -20 -10q-8 0 -14 4q-8 6 -10 16t4 19q61 86 171 121q10 3 19 -1.5t12 -14.5t-1.5 -19t-14.5 -12zM961 400q0 90 -50.5 168.5t-137.5 128.5t-193 61q25 24 25 58q0 33 -23.5 56.5t-56.5 23.5t-56 -23.5t-23 -56.5q0 -34 25 -58
q-106 -11 -193.5 -61t-137.5 -128.5t-50 -168.5h871zM973 364h-895q-20 0 -34.5 -14.5t-14.5 -34.5t14.5 -34.5t34.5 -14.5h895q20 0 34.5 14.5t14.5 34.5t-14.5 34.5t-34.5 14.5zM801 223q-42 -21 -194 -76q-15 -6 -33 -5q-9 1 -151 10q-11 1 -11 3t11 5q93 25 129 34
q20 4 24.5 18.5t-4 26.5t-20.5 12q-20 0 -204 -7q-25 -1 -46 -9q-92 -32 -99 -36q-17 -6 -15 -21q4 -19 11.5 -66.5t13 -85t6.5 -41.5q3 -19 15 -4q24 32 44 32q2 0 79.5 -1.5t144.5 -1.5t82 3q27 5 259 160q12 8 10.5 25t-15 25.5t-37.5 -0.5zM2 169v-297q179 34 191 36
q8 1 12.5 8t2.5 16q-44 239 -45 246t-6.5 12.5t-12.5 3.5q-4 -1 -39.5 -7.5t-68.5 -12.5z" />
    <glyph glyph-name="uniE666" unicode="&#xe666;" 
d="M342 192q32 0 65 6q-71 58 -108 140q-13 3 -23 7q-78 28 -113.5 102.5t-7.5 151.5q21 59 72.5 95.5t114.5 36.5q34 0 67 -11q78 -28 113 -102.5t8 -151.5q-4 -12 -10 -23v-1q15 -35 45.5 -58t67.5 -28q18 29 30 62q25 66 19 134t-32.5 126.5t-77 105t-116.5 69.5
q-55 20 -114 20q-107 0 -195.5 -62.5t-124.5 -164.5q-42 -116 1.5 -232t148.5 -176l-41 -118l-14 30q-11 23 -35 31.5t-47 -2.5t-31.5 -34.5t2.5 -46.5l79 -168q8 -16 23 -25.5t33 -9.5q14 0 26 6l159 76q23 11 31.5 34.5t-2.5 46.5t-34.5 31.5t-46.5 -2.5l-30 -14l44 123
q27 -4 54 -4zM1018 156q-10 23 -33.5 32.5t-46.5 -1.5l-68 -29l-26 60q89 59 128 158q52 131 -4 260q-41 94 -126 149.5t-187 55.5q-37 0 -71 -8q74 -47 110 -137q49 -9 86.5 -39t57.5 -77q32 -76 2 -152.5t-106 -109.5q-38 -16 -79 -16q-17 0 -34 3q-49 9 -88.5 40
t-59.5 77q-32 72 -5 146q0 1 1 3t1 3q6 13 14 28q-36 62 -104 86q-1 0 -4 0.5t-4 1.5q-20 -31 -33 -64q-1 -2 -2 -3q-49 -130 6 -257q30 -70 86.5 -119.5t127.5 -71.5q48 -14 98 -14q38 0 77 9l26 -60l-67 -30q-24 -10 -33 -33.5t1 -46.5q7 -17 22.5 -27t33.5 -10q13 0 24 5
l68 29l25 -57q7 -17 22.5 -27t33.5 -10q12 0 24 5q23 10 32.5 33.5t-0.5 46.5l-25 58l67 29q24 10 33 33.5t-1 47.5z" />
    <glyph glyph-name="uniE667" unicode="&#xe667;" 
d="M129 32h647q53 0 91 38t38 92v209q0 6 -4.5 10.5t-12.5 -0.5q-14 -12 -51 -41.5t-46 -36.5q-4 -3 -9.5 -12t-5.5 -14v-95q0 -5 -4.5 -12.5t-10.5 -7.5h-611q-5 0 -13 6t-8 15v415q0 4 4.5 10t10.5 6h113q18 0 31 11q14 11 64.5 51.5t65.5 51.5q3 3 0.5 9t-7.5 6h-282
q-53 0 -91 -38t-38 -91v-452q0 -54 38 -92t91 -38zM1015 629q-162 130 -285 228q-3 3 -11 0.5t-8 -6.5v-91v-15q-8 0 -15 -1q-81 -4 -158 -38.5t-137.5 -91t-99.5 -135t-44 -164.5q0 -7 6 -10.5t10 0.5q44 42 85.5 72t95 57t118.5 40t139 10v-106q0 -5 6.5 -8.5t9.5 -1.5
q239 191 288 231q19 15 0 30z" />
    <glyph glyph-name="uniE668" unicode="&#xe668;" 
d="M786 233q-71 0 -123 -49l-251 153q7 24 7 49q0 24 -7 48l250 150q52 -49 124 -49q75 0 128 52.5t53 127.5t-53 128t-128 53t-128 -53t-53 -128q0 -24 7 -48l-250 -150q-52 50 -124 50q-75 0 -128 -53t-53 -128t53 -128t128 -53q71 0 123 49l251 -152q-7 -25 -7 -49
q0 -75 53 -128t128 -53t128 53t53 128t-53 127.5t-128 52.5z" />
    <glyph glyph-name="uniE669" unicode="&#xe669;" 
d="M665 606q-5 0 -10 2q-13 3 -19.5 15t-2.5 25l44 154q4 13 15.5 20t25 3t20 -16t2.5 -25l-44 -154q-3 -11 -12 -17.5t-19 -6.5zM990 273q-5 0 -9 1l-154 44q-13 4 -19.5 15.5t-3 25t15.5 20t25 2.5l154 -44q13 -4 19.5 -15.5t3.5 -25.5q-3 -10 -12 -16.5t-20 -6.5z
M819 501q-18 0 -28 16q-7 11 -4 24.5t14 20.5l135 86q12 7 25.5 4t20.5 -14.5t4 -24.5t-14 -21l-135 -85q-8 -6 -18 -6zM406 3l-12 53l208 46l12 -51zM850 209l-304 490q-9 15 -25 19t-29 -6l-430 -531q-1 0 -3 -2l-58 4l144 -232l23 53l2 2l167 37l15 -67q4 -18 19.5 -27.5
t33.5 -5.5l235 54q18 4 28 19.5t5 33.5l-14 65l178 40q15 5 18.5 22.5t-5.5 31.5z" />
    <glyph glyph-name="uniE66A" unicode="&#xe66a;" 
d="M568 864q-3 3 -7 7.5t-16.5 13t-24.5 11t-29.5 -4.5t-32.5 -27l-109 -142q-6 -8 -17.5 -21t-48 -41t-73.5 -43l-159 -62q-3 -2 -8.5 -4.5t-17.5 -12.5t-18.5 -21.5t-6 -30.5t14.5 -41l96 -152q5 -9 13.5 -24t22.5 -59t16 -84l8 -184q0 -2 0.5 -5t2.5 -12.5t5.5 -16.5
t10 -16.5t16.5 -13t24 -6.5t32 4l164 47q9 3 26 6.5t63 4t85 -10.5l163 -47q3 -1 9 -2t21.5 -0.5t27 6t22 21t11.5 41.5l8 184q0 10 2 27.5t15.5 61.5t34.5 78l96 152q2 3 5 8.5t6.5 20.5t2 28t-13.5 28t-36 25l-157 62q-10 3 -25.5 11t-53.5 35.5t-63 59.5z" />
    <glyph glyph-name="uniE66B" unicode="&#xe66b;" 
d="M510 705l65 -157q15 -35 44.5 -57t65.5 -25v0l164 -13l-123 -113v0q-28 -25 -39 -61.5t-2 -73.5l39 -166l-141 87q-31 19 -67 19q-37 0 -68 -20v0l-140 -90l36 167q8 37 -3.5 73t-39.5 61v0l-125 111l163 15q37 4 66 26.5t43 58.5zM509 896h-1q-24 0 -34 -24l-113 -288
q-8 -22 -30 -24l-297 -29q-25 -3 -32.5 -27.5t11.5 -40.5l228 -202q17 -15 12 -38l-66 -304q-5 -25 15 -40q10 -7 22 -7q10 0 19 6l254 164q9 5 19 5t19 -5l257 -159q8 -5 19 -5q12 0 22 7q20 16 14 41l-71 302q-5 23 11 39l224 205q19 17 11 41.5t-32 26.5l-298 23
q-22 2 -31 24l-118 286q-10 23 -34 23z" />
    <glyph glyph-name="uniE66C" unicode="&#xe66c;" 
d="M972 555l-26 10l-319 -319q-7 -7 -16.5 -7t-16 6.5t-6.5 16t7 15.5l306 306l-56 22l-289 -289q-31 -32 -56 -7q-24 24 8 55l271 271q-25 14 -48 31l-262 -263q-7 -6 -16 -6t-16 6.5t-7 15.5t7 16l261 261q-13 13 -24 27l-107 141q-2 3 -6 7.5t-16.5 13t-25 11t-29.5 -4.5
t-33 -27l-108 -142q-6 -8 -17.5 -21t-47.5 -41t-74 -43l-158 -62l-9 -5q-5 -2 -17 -12t-18.5 -21.5t-6 -30.5t14.5 -41l96 -152q5 -9 13 -24t22.5 -59t16.5 -84l8 -184q0 -2 0.5 -5t2 -12.5t5.5 -16.5t10.5 -16.5t16 -13t23.5 -6.5t32 4l163 47q10 3 27 6.5t62.5 4
t84.5 -10.5l163 -47q3 -1 9 -2t21 -0.5t27 6t22 21t11 41.5l8 184q1 10 3 27.5t15 61.5t34 78l96 152q7 6 12 30q12 56 -48 80zM337 146l55 218q0 -1 0.5 -2t1.5 -2q16 -15 38 -18q-1 -9 -1 -13q0 -37 26 -63.5t63 -26.5q5 0 14 2q3 -24 18 -39l1 -1q1 -1 2 -1z" />
    <glyph glyph-name="uniE66D" unicode="&#xe66d;" 
d="M977 552l-166 65q-9 4 -24 11t-50.5 33t-59.5 57l-113 148q-2 3 -5.5 7t-15.5 12t-23.5 10.5t-28 -4t-30.5 -25.5l-114 -149q-6 -8 -17 -20t-45 -38.5t-70 -40.5l-167 -66q-3 -1 -8 -3.5t-16.5 -12t-17.5 -20.5t-5.5 -29t13.5 -39l101 -159q5 -8 12.5 -22.5t21.5 -56
t15 -79.5l9 -193v-5q0 -3 2 -11.5t5.5 -15t9.5 -16t15.5 -12.5t22.5 -5.5t31 3.5l171 50q12 3 31 6q-18 20 -18 48q0 30 21.5 51.5t51.5 21.5t51.5 -21.5t21.5 -51.5q0 -28 -18 -49q12 -2 24 -5l172 -50q3 -1 8.5 -2t20 -0.5t25.5 5.5t20.5 20t10.5 39l9 193q0 10 2 26
t14.5 58t32.5 74l101 159q1 1 4.5 8t6.5 20t1.5 26t-13 27t-33.5 23zM586 185q-6 -8 -14 -31t-20.5 -33t-39.5 -10t-42 18t-15 41q0 29 16 54.5t39 43.5t46 35.5t39.5 39t16.5 45.5q0 36 -23 56t-63 20q-32 0 -51.5 -12t-28.5 -29.5t-16.5 -34.5t-22 -29t-38.5 -12t-41 14
t-17 40q0 65 63.5 115t145.5 50q45 0 84.5 -10.5t72 -31.5t51.5 -56t19 -80q0 -33 -13.5 -61.5t-35 -48.5t-43.5 -36t-42 -31t-27 -26z" />
    <glyph glyph-name="uniE66E" unicode="&#xe66e;" 
d="M701 127q-4 -1 -7 -3q-74 -25 -138 -81q-4 -4 -9 -7q-6 -13 -23 -47.5t-26 -52.5q48 1 88 -11l166 -49q3 -1 9 -2t20 -0.5t25 5.5t21 20t11 38l4 101q-77 8 -141 89zM394 -83q0 9 5 19q8 17 32.5 67.5t38.5 78.5q6 14 19 20q2 3 4 4q53 46 113 77q-44 85 -86 158
q-72 -22 -138 3t-115 93q-16 22 -2 43t37.5 22t42.5 -20q37 -52 87.5 -60.5t104.5 24.5q8 4 15 6q3 1 5 2q5 6 12 10q89 52 172.5 34t143.5 -102q16 -22 2 -43t-37.5 -21.5t-42.5 19.5q-60 84 -149 56q43 -75 83 -154q5 -9 7 -18q23 -42 46 -68t52 -30v0h1h-1q8 86 49 152
l121 195q1 2 2 4.5t3 9.5t1 13.5t-6.5 13.5t-16.5 12l-163 65q-4 1 -12.5 5t-33.5 18t-47.5 29.5t-51.5 42t-50 54.5l-86 115q-2 2 -6 6.5t-15.5 12.5t-23 10.5t-27.5 -4t-30 -25.5l-112 -149q-6 -7 -16.5 -19.5t-44.5 -39.5t-69 -41l-162 -65q-4 -1 -9 -3.5t-16 -12
t-17.5 -20.5t-5.5 -29t13 -39l99 -159q5 -8 12.5 -22.5t21 -56t15.5 -79.5l8 -194v-4l2 -12q2 -9 5.5 -15.5t10 -15.5t15.5 -12t22 -5.5t30 3.5zM493 462q-30 0 -51.5 21.5t-21.5 51.5t21.5 51.5t51.5 21.5t51 -21.5t21 -51.5t-21 -51.5t-51 -21.5z" />
    <glyph glyph-name="uniE66F" unicode="&#xe66f;" horiz-adv-x="1026" 
d="M1003 447q24 24 13.5 56.5t-44.5 37.5l-236 34q-49 7 -71 52l-106 214q-15 31 -49 31t-50 -31l-105 -214q-22 -45 -71 -52l-237 -34q-34 -5 -44.5 -37.5t14.5 -56.5l171 -167q35 -35 27 -84l-41 -235q-5 -34 22 -54q15 -11 33 -11q13 0 25 7l212 111q20 11 43.5 11
t44.5 -11l211 -111q12 -7 26 -7q18 0 32 11q28 20 22 54l-40 235q-9 49 27 84z" />
    <glyph glyph-name="uniE670" unicode="&#xe670;" 
d="M828 605.5q-20 -19.5 -47.5 -19.5t-47 19.5t-19.5 47t19.5 47.5t47 20t47.5 -20t20 -47.5t-20 -47zM436 -33q-10 -10 -24.5 -10t-24.5 10l-292 292q-10 10 -10 24t10 24.5t24.5 10.5t24.5 -10l292 -292q10 -10 10 -24.5t-10 -24.5zM1023 514l-42 265q-5 28 -25.5 48.5
t-48.5 25.5l-265 42q-45 7 -77 -25l-539 -539q-26 -26 -26 -63t26 -63l307 -307q26 -26 63 -26t63 26l539 539q32 32 25 77z" />
    <glyph glyph-name="uniE671" unicode="&#xe671;" 
d="M828 605.5q-20 -19.5 -47.5 -19.5t-47 19.5t-19.5 47t19.5 47.5t47 20t47.5 -20t20 -47.5t-20 -47zM684 365q-76 -69 -168 11q-83 92 -10 173q51 47 90 33q9 -11 0 -21q-4 -4 -18 -7q-34 -6 -53 -26q-50 -56 14 -128q73 -67 130 -14q43 49 -3 105l-10 10l-31 -32
q-11 -8 -22 0q-10 10 1 21l38 37q16 19 34 -1q83 -85 8 -161zM585 266q-8 -8 -18 -4l-43 22l-84 -84l21 -44q5 -9 -4 -17.5t-18 -1.5q-5 5 -8 13l-93 204q-9 18 2 29q12 12 30 2l204 -92q9 -3 13 -8q8 -8 -2 -19zM389 71q-11 -11 -20 -1l-149 148l-33 -33q-11 -11 -22 0
q-9 10 1 20l89 89q11 10 20 1q11 -11 0 -22l-33 -33l148 -149q10 -9 -1 -20zM1023 514l-42 265q-5 28 -25.5 48.5t-48.5 25.5l-265 42q-45 7 -77 -25l-539 -539q-26 -26 -26 -63t26 -63l307 -307q26 -26 63 -26t63 26l539 539q32 32 25 77zM366 357l62 -131l70 70l-131 62z
" />
    <glyph glyph-name="uniE672" unicode="&#xe672;" 
d="M23 162l267 -267q22 -23 54 -23t55 23l602 602q28 28 22 67l-37 230q-3 25 -21 42.5t-43 21.5l-230 37q-39 6 -67 -22l-602 -602q-23 -23 -23 -55t23 -54zM713 585q-31 31 -31 75t31 75.5t75 31.5t75.5 -31.5t31.5 -75.5t-31.5 -75t-75.5 -31t-75 31z" />
    <glyph glyph-name="uniE673" unicode="&#xe673;" 
d="M959 843q-49 0 -89.5 -9.5t-66 -21.5t-50 -34t-35 -35t-28.5 -38q-17 -24 -27 -35.5t-29.5 -25.5t-46.5 -19t-67 -5h-2h-1h-13q-40 0 -67 5t-46.5 19t-29.5 25.5t-27 35.5q-18 24 -28.5 37.5t-35 35.5t-50 34t-66 21.5t-89.5 9.5q-27 0 -46 -19t-19 -46t19 -46t46 -19
q37 0 63 -5t44.5 -18.5t28.5 -24.5t27 -35q38 -53 69 -78q-65 -49 -103 -122t-38 -158q0 -94 46.5 -174t126.5 -126.5t174.5 -46.5t174.5 46.5t126.5 126.5t46.5 174q0 82 -35.5 153t-96.5 120q35 27 77 85q17 24 27 35t28.5 24.5t44.5 18.5t63 5q27 0 46 19t19 46t-19 46
t-46 19zM504 55q-90 0 -154 64t-64 153.5t64 153.5t154 64t153.5 -64t63.5 -153.5t-63.5 -153.5t-153.5 -64z" />
    <glyph glyph-name="uniE674" unicode="&#xe674;" 
d="M837 435l-376 -376q-11 -11 -27.5 -11t-26.5 11l-220 220q-12 12 -12 27.5t12 27.5l375 375q11 11 27.5 11t27.5 -11l220 -220q11 -11 11 -27t-11 -27zM1001 556l-76 76q-34 -34 -82.5 -34t-82.5 34t-34 83t34 83l-76 75q-23 23 -55.5 23t-54.5 -23l-551 -550
q-23 -23 -23 -55.5t23 -54.5l75 -77q35 34 83.5 34t82.5 -34t34 -82.5t-34 -82.5l76 -77q23 -22 55.5 -22t54.5 22l551 552q23 23 23 55.5t-23 54.5zM590 654l192 -192l-348 -348l-192 192z" />
    <glyph glyph-name="uniE675" unicode="&#xe675;" 
d="M658 192q-12 -12 -29 -12t-29 12l-87 87l-87 -87q-12 -12 -29 -12t-29 12l-48 48q-12 12 -12 29t12 29l87 87l-87 87q-12 12 -12 29t12 29l48 48q12 12 29 12t29 -12l87 -87l87 87q12 12 29 12t29 -12l48 -48q12 -12 12 -29t-12 -29l-87 -87l87 -87q12 -12 12 -29
t-12 -29zM874 746q-98 98 -230 133t-264 0t-230 -133q-74 -74 -112 -169.5t-38 -192.5t38 -192.5t112 -169.5q98 -98 230 -133t264 0t230 133t133 230t0 264t-133 230z" />
    <glyph glyph-name="uniE676" unicode="&#xe676;" 
d="M626 384l374 374q24 24 24 57.5t-23.5 57t-57 23.5t-57.5 -24l-374 -374l-374 374q-24 24 -57.5 24t-57 -23.5t-23.5 -57t24 -57.5l374 -374l-374 -374q-24 -24 -24 -57.5t23.5 -57t57 -23.5t57.5 24l374 374l374 -374q24 -24 57.5 -24t57 23.5t23.5 57t-24 57.5z" />
    <glyph glyph-name="uniE677" unicode="&#xe677;" 
d="M853 655h-682v51q0 6 6 6h670q6 0 6 -6v-51zM793 -59q0 -6 -6 -6h-550q-6 0 -6 6v650h562v-650zM378 833h268v-58h-268v58zM847 775h-137v89q0 14 -9.5 23t-22.5 9q-2 0 -4 -1q-1 1 -2 1h-321h-2h-3q-13 0 -22.5 -9t-9.5 -23v-89h-137q-29 0 -49.5 -20t-20.5 -49v-51v-64
h61v-650q0 -29 20 -49t49 -20h550q29 0 49.5 20t20.5 49v650h60v64v51q0 29 -20.5 49t-49.5 20zM628 517h64v-525h-64v525zM481 517h64v-525h-64v525zM333 517h64v-525h-64v525z" />
    <glyph glyph-name="uniE678" unicode="&#xe678;" 
d="M296 430q0 16 11.5 27.5t27.5 11.5h1q16 0 27.5 -11.5t11.5 -27.5v-430q0 -16 -11.5 -27.5t-27.5 -11.5h-1q-16 0 -27.5 11.5t-11.5 27.5v430zM473 430q0 16 11 27.5t28 11.5t28 -11.5t11 -27.5v-430q0 -16 -11 -27.5t-28 -11.5q-16 0 -27.5 11.5t-11.5 27.5v430z
M649 430q0 16 11.5 27.5t28.5 11.5q16 0 27.5 -11.5t11.5 -27.5v-430q0 -16 -11 -27.5t-28 -11.5t-28.5 11.5t-11.5 27.5v430zM194 -128h637q9 0 16 7t7 17v662h-684v-662q0 -10 7 -17t17 -7zM665 783v53q0 25 -17.5 42.5t-42.5 17.5h-186q-25 0 -42.5 -17.5t-17.5 -42.5
v-53h48v41q0 10 7 17t17 7h162q10 0 17 -7t7 -17v-41h48zM140 711v-81q0 -10 7 -17t17 -7h696q10 0 17 7t7 17v81q0 10 -7 17t-17 7h-696q-10 0 -17 -7t-7 -17z" />
    <glyph glyph-name="uniE679" unicode="&#xe679;" 
d="M1006 680l-2 1q-17 22 -45 22h-894q-27 0 -46 -23q-19 -20 -19 -49.5t19 -50.5l448 -497q18 -20 44.5 -20t45.5 20l2 4l447 493q18 21 18 50.5t-18 49.5z" />
    <glyph glyph-name="uniE67A" unicode="&#xe67a;" 
d="M809 -110l1 2q22 17 22 45v893q0 27 -23 46q-20 19 -49.5 19t-50.5 -19l-496 -448q-21 -18 -21 -44.5t21 -44.5l3 -2l493 -447q21 -18 50.5 -18t49.5 18z" />
    <glyph glyph-name="uniE67B" unicode="&#xe67b;" 
d="M215 876l-1 -1q-22 -18 -22 -46v-892q0 -27 23 -46q20 -19 49.5 -19t50.5 19l496 447q21 18 21 44.5t-21 45.5l-3 2l-493 446q-21 19 -50.5 19t-49.5 -19z" />
    <glyph glyph-name="uniE67C" unicode="&#xe67c;" 
d="M18 85l2 -1q17 -21 45 -21h894q27 0 46 22q19 21 19 50.5t-19 50.5l-448 496q-18 21 -44.5 21t-45.5 -21l-2 -3l-447 -493q-18 -21 -18 -50.5t18 -50.5z" />
    <glyph glyph-name="uniE67D" unicode="&#xe67d;" 
d="M925 479h-791q-45 0 -79 21t-48 57q-6 17 -7.5 35t10 50t41.5 60l179 168q31 28 71.5 26t68 -33.5t25.5 -73.5t-32 -71l-39 -36h601q41 0 70 -29.5t29 -72t-29 -72t-70 -29.5zM727 -128q-43 0 -73 34q-27 31 -25 73t32 71l39 36h-601q-41 0 -70 29.5t-29 72t29 72.5
t70 30h791q45 0 79 -21.5t48 -57.5q6 -17 7.5 -35t-10 -50t-40.5 -60l-180 -168q-29 -26 -67 -26z" />
    <glyph glyph-name="uniE67E" unicode="&#xe67e;" 
d="M607 -29v791q0 45 21 79t57 48q17 6 35 7.5t50 -10t60 -41.5l168 -179q28 -31 26 -71.5t-33.5 -68t-73.5 -25.5t-71 32l-36 39v-601q0 -41 -29.5 -70t-72 -29t-72 29t-29.5 70zM0 169q0 43 34 73q31 27 73 25t71 -32l36 -39v601q0 41 29.5 70t72 29t72.5 -29t30 -70v-791
q0 -45 -21.5 -79t-57.5 -48q-17 -6 -35 -7.5t-50 10t-60 40.5l-168 180q-26 29 -26 67z" />
    <glyph glyph-name="uniE67F" unicode="&#xe67f;" 
d="M546 883q-12 13 -33.5 13t-34.5 -13l-254 -256q-21 -21 -9.5 -48t40.5 -27l83 1l-1 -365q0 -27 19 -46t46 -19h221q27 0 46 19t19 46l-1 364h83q29 0 40.5 27t-9.5 48zM949 463q-28 0 -47 -19t-19 -47v-366q0 -11 -8 -19t-19 -8h-689q-12 0 -20 8t-8 19v366q0 28 -19 47
t-46 19t-46 -19t-19 -47v-366q0 -66 46 -112.5t112 -46.5h689q66 0 112.5 46.5t46.5 112.5v366q0 28 -19.5 47t-46.5 19z" />
    <glyph glyph-name="uniE680" unicode="&#xe680;" 
d="M370 596l-27 -21l-20 19q-34 -15 -100 -46q-12 -6 -25 -6q-14 0 -27 7q-15 12 -26.5 24t-21 27t-13.5 22t-12 24.5t-9 18.5q-19 40 -58 21q-42 -21 -23 -60q0 -1 6 -14.5t12 -25t16.5 -30t24.5 -35t31 -33t40.5 -30t49.5 -21.5q9 -3 22 -6q0 -15 1 -31t1 -26
q0 -15 2.5 -26t6.5 -16t7.5 -8t6.5 -3l2 -1v-64h1v-2v-1v-285q0 -61 41 -61q25 0 39.5 17.5t14.5 43.5v285v1v2h37v-2v-1v-285q0 -26 14.5 -43.5t38.5 -17.5q42 0 42 61v285v1v2v57q0 3 -1 6q2 3 13.5 25.5t11.5 35.5v172q-10 -1 -32 10.5t-43 25.5t-22 14q-20 -5 -22 -6z
M236 580q6 3 23.5 11.5t32.5 15.5q-47 13 -77 63q-9 -5 -16 -8t-10 -4l-3 -2q-18 -8 -22 -28t8 -36q9 -12 26.5 -15.5t37.5 3.5zM463 744q0 -49 -34.5 -83.5t-83.5 -34.5t-84 34.5t-35 83.5t35 83.5t84 34.5t83.5 -34.5t34.5 -83.5zM784 744q0 -49 -34.5 -83.5t-84 -34.5
t-84 34.5t-34.5 83.5t34.5 83.5t84 34.5t84 -34.5t34.5 -83.5zM728 607q10 -4 27.5 -12.5t27.5 -12.5q18 -7 36 -2.5t28 15.5q11 11 9 27.5t-19 25.5q-1 0 -6.5 2.5t-15.5 7.5t-20 9q-14 -23 -28 -35.5t-39 -24.5zM998 693q-9 8 -30 4t-29 -21q-1 -2 -6.5 -13.5t-8 -16
t-8.5 -15.5t-10.5 -17.5t-12 -17t-14.5 -17.5t-17 -15.5t-21 -15.5q-12 -7 -27 -7q-13 0 -24 6l-100 46l-21 -19l-27 26q-8 1 -16 4q-18 -9 -39 -20q2 9 0 17q8 5 18 10q-49 23 -72 71q-14 -8 -24 -15q-28 16 -31 17q-23 -48 -72 -72q77 -40 106 -60q5 -3 12 -6v-167
q0 -13 11.5 -35.5t12.5 -25.5v-6v-57v-1v-2v-285q0 -61 42 -61q25 0 39 17.5t14 43.5v285v2v1h37v-1v-2v-285q0 -26 14.5 -43.5t38.5 -17.5q42 0 42 61v285v2v1v64q1 0 3 0.5t6 3.5t7.5 8t6.5 16t3 26q0 12 1 29t1 30q8 0 19 2q13 3 18 5q31 10 57.5 27.5t43.5 36.5t32 42.5
t22 39t14 32.5t8 18q7 21 0.5 36.5t-19.5 21.5z" />
    <glyph glyph-name="uniE681" unicode="&#xe681;" 
d="M512 896q-104 0 -199 -40.5t-163.5 -109t-109 -163.5t-40.5 -199t40.5 -199t109 -163.5t163.5 -109t199 -40.5t199 40.5t163.5 109t109 163.5t40.5 199t-40.5 199t-109 163.5t-163.5 109t-199 40.5zM410 718q28 0 48 -20t20 -48t-20 -47.5t-48 -19.5t-47.5 19.5
t-19.5 47.5t19.5 48t47.5 20zM839 214q-35 -20 -69 -25t-63.5 5t-55 29.5t-47.5 48.5q-4 -2 -7 -3q-68 -24 -128 -76l-8 -6q-24 -49 -62 -129q-12 -22 -35 -23t-37.5 17.5t-3.5 41.5q11 22 33 67t33 68q6 13 17 19q4 3 4 4q50 43 105 71q-41 80 -80 147q-67 -21 -128 2.5
t-106 86.5q-15 21 -2.5 40.5t34.5 20t40 -18.5q70 -98 179 -33q6 4 13 5q3 1 5 2q5 6 11 10q83 48 160.5 31t132.5 -95q15 -20 2.5 -39.5t-34.5 -20.5t-40 18q-55 79 -139 52q40 -69 78 -143q4 -8 6 -17q12 -20 21.5 -34.5t23.5 -29.5t28 -21.5t33 -5.5t40 13q15 8 29 6.5
t23.5 -12.5t14 -23.5t-1 -26.5t-19.5 -23z" />
    <glyph glyph-name="uniE682" unicode="&#xe682;" 
d="M511 510q0 -29 -20.5 -49.5t-49.5 -20.5t-49.5 20.5t-20.5 49.5t20.5 49.5t49.5 20.5t49.5 -20.5t20.5 -49.5zM837 139q-21 -12 -40.5 -13t-34.5 5.5t-29.5 22t-24.5 30.5t-22 36q-2 10 -6 18q-39 76 -81 148q87 27 145 -54q15 -21 40.5 -18.5t36 21t-2.5 41.5
q-57 80 -137.5 98t-166.5 -32q-6 -5 -11 -10q-2 -1 -5 -2q-7 -2 -15 -6q-52 -32 -100.5 -24t-84.5 59q-15 21 -40.5 18.5t-36 -21t1.5 -41.5q47 -65 110.5 -89.5t132.5 -2.5q41 -70 84 -152q-58 -30 -109 -75q-1 0 -4 -4q-12 -6 -19 -19q-23 -48 -68 -140q-11 -24 3.5 -43
t39 -18.5t35.5 24.5q52 105 65 133q5 3 9 6q61 54 132 79q4 1 7 3q24 -30 50 -50t56.5 -30.5t66 -5.5t71.5 26q15 9 20.5 23.5t1 28t-14.5 24.5t-24.5 13t-30.5 -7zM404 724q-30 0 -41 27l-34 83q-7 17 0 34t24 24.5t34 0t24 -24.5l35 -82q7 -18 0 -35t-25 -24q-8 -3 -17 -3
zM169.5 602q-18.5 0 -31.5 13l-64 64q-13 13 -13 31.5t13 31.5t31.5 13t32.5 -13l63 -63q13 -13 13 -31.5t-13 -32t-31.5 -13.5zM620 724q-9 0 -18 3q-17 7 -24 24t0 35l35 82q7 17 24 24.5t34 0t24 -24.5t0 -34l-34 -83q-11 -27 -41 -27zM855 602q-19 0 -32 13.5t-13 32
t13 31.5l64 63q13 13 31.5 13t31.5 -13t13 -31.5t-13 -31.5l-64 -63q-13 -14 -31 -14z" />
    <glyph glyph-name="uniE683" unicode="&#xe683;" 
d="M438 795q0 -42 -29.5 -72t-71.5 -30t-72 30t-30 72t30 71.5t72 29.5t71.5 -29.5t29.5 -71.5zM910 259q-30 -18 -58.5 -19.5t-49.5 8t-42.5 32t-36 44t-30.5 52.5q-4 13 -10 25q-57 111 -117 215q125 39 209 -78q22 -31 59 -27.5t52 30.5t-3 60q-83 116 -199 142t-240 -47
q-10 -6 -17 -14q-4 -1 -8 -3q-10 -2 -20 -8q-76 -47 -146 -35t-123 85q-21 31 -58.5 27.5t-52.5 -30.5t4 -60q68 -95 159.5 -130t191.5 -4q59 -101 120 -220q-83 -43 -157 -107l-6 -6q-17 -9 -27 -28q-16 -34 -48.5 -101.5t-49.5 -101.5q-9 -21 -5 -40.5t19.5 -31
t33.5 -15.5t36.5 4.5t28.5 29.5q60 123 94 193q6 3 12 8q90 78 192 114l10 4q34 -43 72 -72t82 -44t95 -7.5t104 37.5q22 13 29.5 34t1 40t-20.5 35t-35.5 19t-44.5 -9z" />
    <glyph glyph-name="uniE684" unicode="&#xe684;" 
d="M797 322l-125 38q-12 -15 -25 -28l33 -10q-79 -314 -98 -407q-22 -6 -41 -8l36 84l-34 226h-62l-34 -226l36 -84q-19 2 -42 8q-18 91 -97 407l33 10q-14 13 -26 28l-124 -38q-21 -6 -34 -23.5t-13 -39.5v-55q0 -90 44 -166.5t121 -121t167 -44.5t167 44.5t121 121
t44 166.5v55q0 22 -13 39.5t-34 23.5zM481 274v-34h61v34q-16 -3 -30.5 -3t-30.5 3zM725 533q-7 -21 -20 -33t-25 -12q-12 -1 -16 -10q-25 -57 -65 -98.5t-87 -41.5t-87.5 41.5t-65.5 98.5q-4 10 -16 10t-25 12t-20 33q-8 24 -3 45q5 17 16 21h4q6 1 10.5 5.5t4.5 10.5
q1 13 4 23q7 28 21 49.5t29 31.5t29 16.5t24 8.5l9 1q-7 -16 -17.5 -29t-17.5 -18l-6 -5q37 15 64 32.5t36 27.5l9 10q64 -89 176 -124q3 -18 3 -24t4.5 -10.5t10.5 -5.5h5q11 -4 15.5 -23t-3.5 -43zM727 630q8 51 -2 112q-5 31 -15 60.5t-17 44.5l-7 14l-13 -54l-2 -6v5v2
q-2 13 -6 30.5t-7 28.5l-3 11q-14 -7 -33.5 -10t-32.5 -3h-13q6 4 18.5 9t21.5 8l9 3q-102 32 -171 -23q-8 -7 -14 -13l10 12l21 24q-50 -5 -91 -56l-20 -30l3 18l8 39q-38 -30 -57 -90q-19 -61 -17 -136q-26 -11 -35 -43q-8 -31 4 -65q9 -26 27 -44t39 -22
q30 -64 77 -107.5t103 -43.5t103 43.5t76 107.5q21 4 39 22t27 44q13 35 4 66t-34 42z" />
    <glyph glyph-name="uniE685" unicode="&#xe685;" 
d="M804 333l-148 44q-66 -79 -144 -79t-144 79l-148 -44q-21 -6 -34.5 -24t-13.5 -41v-56q0 -92 45.5 -170.5t124 -124t170.5 -45.5t170.5 45.5t124 124t45.5 170.5v56q0 23 -13.5 41t-34.5 24zM298 605q4 17 15 21q3 1 12 3q3 1 25 5.5t31 6.5t32 8t35.5 10.5t33.5 12
t33.5 14t29 16t26 19.5t18 22t11.5 26l2 -10q2 -6 10 -23.5t18 -33t28 -35t40 -33.5q9 -6 16 -8q12 -4 16.5 -23t-3.5 -43q-7 -20 -20 -32t-25 -12q-11 0 -16 -11q-25 -57 -65 -98t-87 -41t-87 41t-66 98q-4 11 -16 11q-11 0 -24 12t-20 32q-9 24 -3 45zM334 483
q30 -63 77 -107t103 -44t102.5 44t76.5 107q21 4 39 22t27 44q12 35 3 66t-34 41q21 154 -117 193q-3 5 -8 11t-25.5 18.5t-44.5 16.5q-23 3 -49 -2q-46 -7 -98 -39q-33 -19 -54.5 -47t-28 -54t-8.5 -52.5t5 -43.5q-27 -11 -35 -43q-8 -31 4 -65q9 -26 26.5 -44t38.5 -22z
" />
    <glyph glyph-name="uniE686" unicode="&#xe686;" 
d="M832 224zM1024 161q0 33 -16.5 66.5t-56.5 55.5q-34 20 -87 -27l-32 -32v-191h128q36 0 50 14.5t14 49.5v64zM194 224zM75 283q-40 -22 -56.5 -55.5t-16.5 -66.5v-3v-8v-10v-11v-12v-11v-6v-3q0 -35 14 -49.5t50 -14.5h128v191l-32 32q-53 47 -87 27zM832 353
q27 0 61.5 28t34.5 74v51q0 48 -29 75t-67 27q-36 0 -65.5 -27t-29.5 -75v-51q0 -46 35 -74t60 -28zM767 225v1q-1 9 -4 18q-5 19 -17 36q-23 32 -69 57q-26 15 -36 15q-12 0 -24 -8t-35 -29l-24 -22l-2 -3q-2 -3 -5.5 -7t-8 -8.5t-9.5 -8.5t-10.5 -7t-10 -3t-9.5 3t-10 7
t-9.5 8.5t-8 8.5t-5.5 7l-2 3l-24 22q-23 21 -35 29t-24 8q-13 0 -37 -15q-49 -31 -68 -57v0q-12 -17 -17 -36h-1q-2 -9 -3 -18v-1q-1 -11 -1 -20v-140q0 -34 14.5 -49t49.5 -15h382q36 0 50 14.5t14 49.5v70v70q0 10 -1 20zM194 353q27 0 61.5 28t34.5 74v51q0 48 -29 75
t-67 27q-37 0 -66.5 -27t-29.5 -75v-51q0 -46 35 -74t61 -28zM513 384q66 0 112.5 57.5t46.5 131.5v30q0 71 -45.5 117.5t-113.5 46.5t-113.5 -46.5t-45.5 -117.5v-30q0 -74 46.5 -131.5t112.5 -57.5z" />
    <glyph glyph-name="uniE687" unicode="&#xe687;" 
d="M890 -7q-22 15 -33 28t-12.5 20t-1.5 19v15q92 95 140 230.5t40 250.5q-7 94 -51 139t-101 45q-27 0 -54 -13q-27 54 -76.5 84t-112.5 30q-82 0 -143 -71q-61 69 -147 69q-96 0 -155 -93q-48 52 -105 64q-2 0 -6.5 0.5t-16.5 -1t-21.5 -5.5t-19 -14.5t-13 -26t0.5 -30
t11.5 -23.5t16.5 -16t14.5 -10.5t6.5 -3.5l-2 1q5 -1 11 -4t18 -13t21.5 -24.5t16.5 -41.5t7 -60v-382q0 -27 19.5 -46.5t47 -19.5t46.5 19.5t19 46.5v382v17q4 9 5 17q1 13 6.5 32.5t14.5 44t24.5 41t32.5 16.5q34 0 56 -35t22 -62v-453q0 -27 19.5 -46.5t47 -19.5t47 19.5
t19.5 46.5v453v6q6 18 15 37t27 38t37 19q39 0 61 -26.5t22 -73.5v-476q-57 -44 -121 -54q-27 -4 -43 -26t-12 -49q3 -24 22 -40t43 -16h10q59 9 115 38q23 -57 91 -103q17 -11 37 -11q36 0 55 29q16 23 10.5 50t-28.5 42zM873 607q7 -4 12.5 -23.5t6 -60.5t-10.5 -90
q-12 -61 -38 -120v271q19 20 30 23z" />
    </font>
</defs>
</svg>
